G04*
G04 #@! TF.GenerationSoftware,Altium Limited,Altium NEXUS,1.0.9 (89)*
G04*
G04 Layer_Color=32896*
%FSLAX42Y42*%
%MOMM*%
G71*
G01*
G75*
%ADD10C,0.25*%
D10*
X190Y2045D02*
Y1994D01*
Y2019D01*
X38D01*
X64Y2045D01*
Y1918D02*
X38Y1892D01*
Y1842D01*
X64Y1816D01*
X165D01*
X190Y1842D01*
Y1892D01*
X165Y1918D01*
X64D01*
X89Y1765D02*
X165D01*
X190Y1740D01*
Y1664D01*
X89D01*
X38Y1511D02*
Y1613D01*
X114D01*
Y1562D01*
Y1613D01*
X190D01*
X1346Y2349D02*
X1295D01*
X1321D01*
Y2197D01*
X1346D01*
X1295D01*
X1118Y2324D02*
X1143Y2349D01*
X1194D01*
X1219Y2324D01*
Y2222D01*
X1194Y2197D01*
X1143D01*
X1118Y2222D01*
X965Y2197D02*
X1067D01*
X965Y2299D01*
Y2324D01*
X991Y2349D01*
X1041D01*
X1067Y2324D01*
X1041Y978D02*
X991D01*
X1016D01*
Y826D01*
X1041D01*
X991D01*
X813Y952D02*
X838Y978D01*
X889D01*
X914Y952D01*
Y851D01*
X889Y826D01*
X838D01*
X813Y851D01*
X762Y826D02*
X711D01*
X737D01*
Y978D01*
X762Y952D01*
X2438Y1676D02*
X2388D01*
X2413D01*
Y1829D01*
X2438Y1803D01*
X2311D02*
X2286Y1829D01*
X2235D01*
X2210Y1803D01*
Y1702D01*
X2235Y1676D01*
X2286D01*
X2311Y1702D01*
Y1803D01*
X2159Y1676D02*
Y1778D01*
X2083D01*
X2058Y1753D01*
Y1676D01*
X1905Y1829D02*
X2007D01*
Y1753D01*
X1956D01*
X2007D01*
Y1676D01*
X2400Y2692D02*
X2299D01*
X2248Y2769D02*
Y2616D01*
X2172D02*
X2096Y2692D01*
X2172Y2769D01*
X2045D02*
Y2616D01*
X1969Y2692D02*
X1867D01*
M02*
