G04*
G04 #@! TF.GenerationSoftware,Altium Limited,Altium NEXUS,1.0.9 (89)*
G04*
G04 Layer_Color=16711935*
%FSLAX42Y42*%
%MOMM*%
G71*
G01*
G75*
%ADD12C,1.00*%
%ADD14P,1.87X8X22.5*%
%ADD15R,1.73X1.73*%
%ADD16P,2.44X4X105.0*%
%ADD17C,1.73*%
%ADD29R,1.73X0.95*%
%ADD30C,1.20*%
G04:AMPARAMS|DCode=31|XSize=1.73mm|YSize=1.2mm|CornerRadius=0mm|HoleSize=0mm|Usage=FLASHONLY|Rotation=0.000|XOffset=0mm|YOffset=0mm|HoleType=Round|Shape=Octagon|*
%AMOCTAGOND31*
4,1,8,0.86,-0.30,0.86,0.30,0.56,0.60,-0.56,0.60,-0.86,0.30,-0.86,-0.30,-0.56,-0.60,0.56,-0.60,0.86,-0.30,0.0*
%
%ADD31OCTAGOND31*%

G04:AMPARAMS|DCode=32|XSize=1.73mm|YSize=1.2mm|CornerRadius=0mm|HoleSize=0mm|Usage=FLASHONLY|Rotation=90.000|XOffset=0mm|YOffset=0mm|HoleType=Round|Shape=Octagon|*
%AMOCTAGOND32*
4,1,8,0.30,0.86,-0.30,0.86,-0.60,0.56,-0.60,-0.56,-0.30,-0.86,0.30,-0.86,0.60,-0.56,0.60,0.56,0.30,0.86,0.0*
%
%ADD32OCTAGOND32*%

%ADD33R,0.95X1.73*%
D12*
X2261Y2252D02*
Y2452D01*
X2158Y2350D02*
X2358D01*
D14*
X2007D02*
D03*
D15*
X2261D02*
D03*
D16*
X1867Y682D02*
D03*
D17*
X1994Y902D02*
D03*
X2121Y1122D02*
D03*
X2248Y1342D02*
D03*
X2375Y1562D02*
D03*
D29*
X216Y2134D02*
D03*
Y2362D02*
D03*
D30*
X1715Y2553D02*
D03*
Y2299D02*
D03*
Y2045D02*
D03*
D31*
X1530Y509D02*
D03*
Y658D02*
D03*
Y808D02*
D03*
Y957D02*
D03*
Y1106D02*
D03*
Y1255D02*
D03*
Y1404D02*
D03*
Y360D02*
D03*
D32*
X1203Y1664D02*
D03*
X1054D02*
D03*
X905D02*
D03*
X756D02*
D03*
X606D02*
D03*
X457D02*
D03*
X308D02*
D03*
Y89D02*
D03*
X457D02*
D03*
X606D02*
D03*
X756D02*
D03*
X905D02*
D03*
X1054D02*
D03*
X1352Y1664D02*
D03*
X1203Y89D02*
D03*
X1352D02*
D03*
D33*
X2248Y1956D02*
D03*
X2019D02*
D03*
M02*
