G04*
G04 #@! TF.GenerationSoftware,Altium Limited,Altium NEXUS,1.0.9 (89)*
G04*
G04 Layer_Physical_Order=1*
G04 Layer_Color=255*
%FSLAX42Y42*%
%MOMM*%
G71*
G01*
G75*
G04:AMPARAMS|DCode=11|XSize=4mm|YSize=5mm|CornerRadius=0mm|HoleSize=0mm|Usage=FLASHONLY|Rotation=240.000|XOffset=0mm|YOffset=0mm|HoleType=Round|Shape=Octagon|*
%AMOCTAGOND11*
4,1,8,2.67,-0.38,1.67,-2.12,0.30,-2.48,-2.30,-0.98,-2.67,0.38,-1.67,2.12,-0.30,2.48,2.30,0.98,2.67,-0.38,0.0*
%
%ADD11OCTAGOND11*%

%ADD12C,1.00*%
%ADD18C,0.50*%
%ADD19P,1.65X8X22.5*%
%ADD20R,1.52X1.52*%
%ADD21P,2.16X4X105.0*%
%ADD22C,1.52*%
%ADD23C,1.27*%
G36*
X846Y2959D02*
X845D01*
X845Y2959D01*
X844Y2958D01*
X843Y2958D01*
X841Y2957D01*
X840Y2956D01*
X839Y2955D01*
X838Y2954D01*
X837Y2954D01*
X837Y2953D01*
X836Y2953D01*
X835Y2952D01*
X835Y2950D01*
X834Y2949D01*
X834Y2948D01*
Y2947D01*
Y2947D01*
Y2946D01*
Y2945D01*
X834Y2944D01*
X835Y2943D01*
X835Y2941D01*
X836Y2940D01*
X836Y2940D01*
X836Y2939D01*
X837Y2938D01*
X838Y2936D01*
X839Y2935D01*
X841Y2933D01*
X843Y2931D01*
X844Y2929D01*
X871Y2903D01*
X862Y2894D01*
X812Y2944D01*
X820Y2952D01*
X827Y2944D01*
Y2945D01*
X827Y2946D01*
X827Y2947D01*
X826Y2949D01*
X826Y2951D01*
X826Y2953D01*
X825Y2955D01*
X826Y2957D01*
Y2957D01*
X826Y2957D01*
X826Y2958D01*
X826Y2959D01*
X827Y2960D01*
X828Y2961D01*
X828Y2962D01*
X829Y2964D01*
X830Y2964D01*
X831Y2965D01*
X832Y2966D01*
X834Y2967D01*
X836Y2968D01*
X838Y2969D01*
X841Y2970D01*
X846Y2959D01*
D02*
G37*
G36*
X749Y2870D02*
X749D01*
X750Y2870D01*
X751Y2870D01*
X752Y2870D01*
X754Y2869D01*
X755Y2868D01*
X757Y2867D01*
X760Y2866D01*
X752Y2856D01*
X752Y2857D01*
X752Y2857D01*
X751Y2857D01*
X750Y2858D01*
X748Y2858D01*
X747Y2859D01*
X745Y2859D01*
X743Y2859D01*
X743D01*
X742Y2859D01*
X741Y2858D01*
X740Y2858D01*
X738Y2857D01*
X737Y2857D01*
X735Y2855D01*
X733Y2854D01*
X732Y2853D01*
X731Y2851D01*
X730Y2850D01*
X729Y2848D01*
X728Y2847D01*
X727Y2845D01*
X727Y2843D01*
Y2843D01*
X727Y2843D01*
Y2842D01*
X727Y2841D01*
X727Y2840D01*
X728Y2838D01*
X728Y2837D01*
X729Y2836D01*
X729Y2836D01*
X729Y2836D01*
X730Y2836D01*
X730Y2835D01*
X731Y2835D01*
X733Y2834D01*
X734D01*
X735Y2834D01*
X736Y2835D01*
X737Y2835D01*
X738Y2835D01*
X738Y2835D01*
X739Y2835D01*
X739Y2836D01*
X740Y2836D01*
X742Y2837D01*
X743Y2838D01*
X744Y2838D01*
X745Y2839D01*
X747Y2840D01*
X748Y2841D01*
X748Y2841D01*
X749Y2841D01*
X749Y2841D01*
X750Y2842D01*
X751Y2842D01*
X752Y2843D01*
X754Y2844D01*
X757Y2846D01*
X760Y2847D01*
X762Y2848D01*
X763Y2849D01*
X764Y2849D01*
X765Y2849D01*
X765Y2849D01*
X766Y2850D01*
X768Y2850D01*
X769Y2850D01*
X771Y2850D01*
X773D01*
X775Y2850D01*
X775D01*
X775Y2850D01*
X776Y2850D01*
X778Y2849D01*
X779Y2849D01*
X781Y2848D01*
X782Y2847D01*
X784Y2845D01*
X784Y2845D01*
X785Y2844D01*
X785Y2843D01*
X786Y2842D01*
X787Y2841D01*
X788Y2839D01*
X789Y2837D01*
X789Y2835D01*
X789Y2834D01*
X789Y2834D01*
X790Y2832D01*
Y2831D01*
X789Y2829D01*
X789Y2826D01*
X789Y2824D01*
X788Y2822D01*
X788Y2821D01*
X787Y2820D01*
X787Y2819D01*
X786Y2818D01*
X785Y2816D01*
X783Y2814D01*
X781Y2811D01*
X779Y2809D01*
X778Y2808D01*
X778Y2808D01*
X777Y2807D01*
X776Y2806D01*
X773Y2804D01*
X770Y2802D01*
X767Y2800D01*
X764Y2799D01*
X762Y2799D01*
X761Y2798D01*
X760Y2798D01*
X760Y2798D01*
X759D01*
X757Y2798D01*
X755Y2799D01*
X752Y2799D01*
X749Y2800D01*
X745Y2802D01*
X742Y2804D01*
X749Y2814D01*
X749Y2814D01*
X749Y2813D01*
X750Y2813D01*
X751Y2812D01*
X753Y2812D01*
X754Y2811D01*
X756Y2810D01*
X758Y2810D01*
X761Y2810D01*
X761Y2810D01*
X762Y2810D01*
X763Y2810D01*
X764Y2811D01*
X766Y2812D01*
X768Y2813D01*
X770Y2814D01*
X772Y2816D01*
X773Y2817D01*
X774Y2818D01*
X775Y2820D01*
X776Y2821D01*
X777Y2823D01*
X778Y2825D01*
X779Y2827D01*
Y2827D01*
Y2828D01*
Y2829D01*
X779Y2830D01*
X778Y2831D01*
X778Y2833D01*
X777Y2834D01*
X776Y2835D01*
X776Y2836D01*
X776Y2836D01*
X775Y2836D01*
X774Y2837D01*
X773Y2837D01*
X772Y2837D01*
X770Y2838D01*
X769Y2837D01*
X769D01*
X768Y2837D01*
X768Y2837D01*
X766Y2837D01*
X765Y2836D01*
X763Y2835D01*
X762Y2834D01*
X760Y2833D01*
X759Y2833D01*
X757Y2832D01*
X757Y2832D01*
X757Y2831D01*
X756Y2831D01*
X756Y2831D01*
X755Y2830D01*
X753Y2829D01*
X751Y2828D01*
X748Y2826D01*
X745Y2825D01*
X743Y2824D01*
X741Y2823D01*
X740Y2823D01*
X740Y2823D01*
X740Y2823D01*
X738Y2822D01*
X737Y2822D01*
X736Y2822D01*
X734Y2822D01*
X732D01*
X730Y2822D01*
X730D01*
X729Y2822D01*
X729Y2823D01*
X727Y2823D01*
X726Y2824D01*
X725Y2825D01*
X723Y2826D01*
X722Y2827D01*
X721Y2827D01*
X721Y2828D01*
X721Y2828D01*
X720Y2829D01*
X719Y2830D01*
X718Y2832D01*
X717Y2833D01*
X717Y2835D01*
Y2835D01*
X717Y2835D01*
X717Y2836D01*
X716Y2837D01*
X716Y2839D01*
X716Y2840D01*
Y2842D01*
X716Y2844D01*
Y2844D01*
X717Y2844D01*
X717Y2845D01*
X717Y2846D01*
X717Y2847D01*
X718Y2848D01*
X718Y2850D01*
X719Y2851D01*
X719Y2852D01*
X720Y2852D01*
X720Y2853D01*
X721Y2854D01*
X722Y2856D01*
X723Y2857D01*
X724Y2858D01*
X727Y2861D01*
X728Y2862D01*
X729Y2863D01*
X731Y2865D01*
X733Y2866D01*
X735Y2867D01*
X738Y2869D01*
X738Y2869D01*
X738D01*
X739Y2869D01*
X740Y2869D01*
X741Y2870D01*
X743Y2870D01*
X745Y2870D01*
X747Y2871D01*
X749Y2870D01*
D02*
G37*
G36*
X803Y2922D02*
X803Y2922D01*
X805Y2922D01*
X806Y2921D01*
X808Y2921D01*
X809Y2920D01*
X811Y2920D01*
X813Y2919D01*
X815Y2918D01*
X818Y2917D01*
X820Y2915D01*
X822Y2914D01*
X824Y2912D01*
X827Y2910D01*
X827Y2910D01*
X827Y2909D01*
X827Y2909D01*
X828Y2908D01*
X829Y2907D01*
X830Y2906D01*
X831Y2905D01*
X832Y2904D01*
X834Y2901D01*
X836Y2898D01*
X838Y2895D01*
X839Y2892D01*
X839Y2892D01*
Y2891D01*
X839Y2891D01*
X839Y2890D01*
X839Y2889D01*
X840Y2886D01*
X840Y2884D01*
Y2881D01*
X840Y2878D01*
X839Y2875D01*
X839Y2875D01*
Y2874D01*
X839Y2874D01*
X838Y2873D01*
X838Y2873D01*
X838Y2872D01*
X837Y2870D01*
X836Y2867D01*
X834Y2865D01*
X832Y2862D01*
X830Y2860D01*
X829Y2859D01*
X828Y2858D01*
X827Y2857D01*
X826Y2856D01*
X825Y2855D01*
X823Y2854D01*
X819Y2853D01*
X818Y2852D01*
X815Y2851D01*
X813Y2850D01*
X811Y2850D01*
X809Y2849D01*
X806Y2849D01*
X806D01*
X805Y2849D01*
X804Y2850D01*
X803Y2850D01*
X801Y2850D01*
X800Y2850D01*
X798Y2851D01*
X796Y2852D01*
X794Y2853D01*
X792Y2854D01*
X790Y2855D01*
X788Y2856D01*
X785Y2858D01*
X783Y2860D01*
X780Y2862D01*
X780Y2863D01*
X780Y2863D01*
X779Y2864D01*
X778Y2865D01*
X777Y2866D01*
X776Y2867D01*
X775Y2869D01*
X773Y2871D01*
X772Y2873D01*
X771Y2875D01*
X770Y2878D01*
X769Y2880D01*
X768Y2883D01*
X768Y2885D01*
X768Y2888D01*
Y2891D01*
Y2891D01*
X768Y2891D01*
Y2892D01*
X768Y2893D01*
X768Y2894D01*
X768Y2895D01*
X769Y2896D01*
X769Y2898D01*
X770Y2899D01*
X770Y2901D01*
X772Y2905D01*
X774Y2908D01*
X776Y2910D01*
X778Y2912D01*
X779Y2913D01*
X779Y2914D01*
X780Y2914D01*
X781Y2915D01*
X783Y2916D01*
X784Y2917D01*
X788Y2919D01*
X790Y2920D01*
X792Y2921D01*
X794Y2921D01*
X796Y2922D01*
X799Y2922D01*
X802D01*
X803Y2922D01*
D02*
G37*
G36*
X699Y2821D02*
X699D01*
X700Y2821D01*
X701Y2821D01*
X702Y2821D01*
X703Y2820D01*
X705Y2820D01*
X706Y2819D01*
X708Y2818D01*
X708Y2818D01*
X708Y2817D01*
X709Y2817D01*
X710Y2816D01*
X711Y2815D01*
X713Y2814D01*
X714Y2812D01*
X717Y2810D01*
X747Y2779D01*
X739Y2771D01*
X708Y2801D01*
X708Y2801D01*
X708Y2801D01*
X708Y2802D01*
X707Y2803D01*
X705Y2804D01*
X704Y2805D01*
X702Y2806D01*
X701Y2807D01*
X700Y2808D01*
X700Y2808D01*
X699Y2808D01*
X698Y2808D01*
X697Y2809D01*
X696Y2809D01*
X693D01*
X692Y2808D01*
X692D01*
X691Y2808D01*
X690Y2808D01*
X689Y2808D01*
X688Y2807D01*
X687Y2806D01*
X686Y2805D01*
X685Y2804D01*
X684Y2803D01*
X683Y2802D01*
X682Y2801D01*
X681Y2799D01*
X680Y2797D01*
X679Y2794D01*
X679Y2791D01*
Y2791D01*
X679Y2790D01*
X679Y2789D01*
X679Y2789D01*
X680Y2788D01*
X680Y2786D01*
X680Y2785D01*
X681Y2784D01*
X682Y2783D01*
X682Y2781D01*
X684Y2780D01*
X685Y2778D01*
X686Y2776D01*
X688Y2774D01*
X715Y2747D01*
X707Y2739D01*
X657Y2789D01*
X664Y2796D01*
X672Y2789D01*
Y2789D01*
X671Y2790D01*
X671Y2791D01*
X671Y2792D01*
X671Y2793D01*
Y2794D01*
X671Y2796D01*
X671Y2797D01*
X672Y2799D01*
X672Y2801D01*
X673Y2803D01*
X673Y2805D01*
X674Y2807D01*
X676Y2809D01*
X677Y2811D01*
X679Y2813D01*
X680Y2814D01*
X681Y2815D01*
X682Y2816D01*
X683Y2817D01*
X685Y2818D01*
X687Y2819D01*
X689Y2820D01*
X689Y2820D01*
X690Y2820D01*
X691Y2821D01*
X692Y2821D01*
X694Y2821D01*
X695Y2822D01*
X697D01*
X699Y2821D01*
D02*
G37*
G36*
X576Y2729D02*
X576Y2728D01*
X577Y2728D01*
X579Y2728D01*
X580Y2727D01*
X583Y2726D01*
X585Y2725D01*
X588Y2723D01*
X590Y2721D01*
X582Y2712D01*
X582Y2712D01*
X582Y2712D01*
X581Y2712D01*
X581Y2713D01*
X579Y2714D01*
X577Y2715D01*
X575Y2716D01*
X573Y2716D01*
X570Y2717D01*
X567Y2717D01*
X567Y2717D01*
X566Y2717D01*
X565Y2716D01*
X562Y2716D01*
X560Y2714D01*
X558Y2713D01*
X555Y2711D01*
X552Y2708D01*
X550Y2707D01*
X550Y2706D01*
X549Y2705D01*
X548Y2703D01*
X546Y2701D01*
X545Y2698D01*
X544Y2696D01*
X543Y2694D01*
X543Y2693D01*
X543Y2693D01*
Y2692D01*
X543Y2691D01*
X543Y2689D01*
X544Y2687D01*
X544Y2685D01*
X545Y2684D01*
X546Y2682D01*
X547Y2682D01*
X547Y2681D01*
X548Y2681D01*
X549Y2680D01*
X550Y2679D01*
X552Y2679D01*
X553Y2678D01*
X555D01*
X556Y2679D01*
X557Y2679D01*
X558Y2679D01*
X558Y2679D01*
X559Y2680D01*
X561Y2680D01*
X562Y2681D01*
X564Y2681D01*
X565Y2682D01*
X567Y2683D01*
X569Y2684D01*
X572Y2686D01*
X574Y2687D01*
X574Y2687D01*
X575Y2688D01*
X575Y2688D01*
X576Y2689D01*
X577Y2689D01*
X579Y2690D01*
X582Y2692D01*
X585Y2694D01*
X588Y2696D01*
X589Y2696D01*
X591Y2697D01*
X592Y2698D01*
X594Y2698D01*
X594Y2698D01*
X594Y2698D01*
X594Y2698D01*
X595Y2699D01*
X597Y2699D01*
X599Y2700D01*
X601Y2700D01*
X604Y2700D01*
X607Y2700D01*
X610Y2700D01*
X610Y2700D01*
X611Y2700D01*
X612Y2699D01*
X614Y2699D01*
X616Y2698D01*
X618Y2697D01*
X620Y2695D01*
X622Y2693D01*
X622Y2693D01*
X622Y2693D01*
X623Y2693D01*
X623Y2692D01*
X624Y2691D01*
X625Y2689D01*
X626Y2687D01*
X628Y2685D01*
X629Y2682D01*
X629Y2680D01*
X630Y2679D01*
Y2679D01*
X630Y2678D01*
X630Y2677D01*
X630Y2674D01*
X630Y2672D01*
X629Y2669D01*
X629Y2666D01*
X628Y2663D01*
X628Y2663D01*
X628Y2662D01*
X627Y2662D01*
X627Y2661D01*
X627Y2661D01*
X626Y2660D01*
X625Y2658D01*
X624Y2655D01*
X622Y2653D01*
X620Y2650D01*
X617Y2647D01*
X616Y2645D01*
X615Y2645D01*
X614Y2644D01*
X613Y2643D01*
X612Y2642D01*
X609Y2640D01*
X606Y2638D01*
X602Y2636D01*
X599Y2634D01*
X599Y2634D01*
X598Y2634D01*
X598Y2634D01*
X597Y2633D01*
X596Y2633D01*
X593Y2632D01*
X590Y2632D01*
X587Y2632D01*
X584D01*
X581Y2632D01*
X581Y2632D01*
X580D01*
X580Y2632D01*
X579Y2633D01*
X578Y2633D01*
X577Y2633D01*
X575Y2634D01*
X573Y2635D01*
X570Y2637D01*
X567Y2639D01*
X565Y2641D01*
X572Y2650D01*
X573Y2650D01*
X573Y2650D01*
X573Y2650D01*
X575Y2649D01*
X576Y2648D01*
X578Y2647D01*
X580Y2646D01*
X582Y2645D01*
X584Y2645D01*
X584D01*
X585Y2644D01*
X586Y2644D01*
X587Y2644D01*
X589D01*
X591Y2645D01*
X594Y2645D01*
X596Y2646D01*
X596Y2646D01*
X596D01*
X597Y2647D01*
X599Y2647D01*
X600Y2648D01*
X602Y2649D01*
X604Y2651D01*
X606Y2653D01*
X609Y2655D01*
X610Y2656D01*
X610Y2657D01*
X612Y2658D01*
X613Y2660D01*
X614Y2661D01*
X615Y2663D01*
X616Y2665D01*
X616Y2666D01*
X617Y2666D01*
X617Y2667D01*
X617Y2669D01*
X618Y2670D01*
X618Y2672D01*
X618Y2674D01*
X618Y2676D01*
Y2676D01*
X618Y2676D01*
X618Y2677D01*
X617Y2678D01*
X617Y2680D01*
X616Y2681D01*
X615Y2682D01*
X614Y2684D01*
X614Y2684D01*
X614Y2684D01*
X613Y2685D01*
X612Y2685D01*
X611Y2686D01*
X610Y2686D01*
X608Y2687D01*
X607Y2687D01*
X606D01*
X606Y2687D01*
X605Y2687D01*
X604D01*
X602Y2687D01*
X601Y2687D01*
X598Y2686D01*
X596Y2685D01*
X596D01*
X596Y2685D01*
X594Y2684D01*
X594Y2684D01*
X593Y2683D01*
X592Y2683D01*
X591Y2682D01*
X589Y2682D01*
X588Y2681D01*
X586Y2680D01*
X585Y2679D01*
X583Y2678D01*
X581Y2676D01*
X581Y2676D01*
X580Y2676D01*
X580Y2676D01*
X579Y2675D01*
X578Y2674D01*
X577Y2674D01*
X574Y2672D01*
X571Y2671D01*
X568Y2669D01*
X565Y2668D01*
X564Y2668D01*
X563Y2667D01*
X563Y2667D01*
X563D01*
X562Y2667D01*
X560Y2667D01*
X558Y2666D01*
X556Y2666D01*
X554Y2666D01*
X552Y2666D01*
X549Y2666D01*
X549Y2666D01*
X548Y2666D01*
X547Y2667D01*
X546Y2668D01*
X544Y2668D01*
X542Y2670D01*
X540Y2671D01*
X538Y2673D01*
X538Y2673D01*
X538Y2673D01*
X538Y2673D01*
X537Y2673D01*
X537Y2675D01*
X535Y2676D01*
X534Y2678D01*
X533Y2680D01*
X532Y2682D01*
X531Y2685D01*
X531Y2685D01*
Y2685D01*
X531Y2686D01*
X531Y2688D01*
Y2690D01*
X531Y2692D01*
X531Y2695D01*
X532Y2698D01*
X533Y2701D01*
X533Y2701D01*
X533Y2701D01*
X533Y2702D01*
X534Y2702D01*
X534Y2703D01*
X534Y2704D01*
X536Y2706D01*
X537Y2708D01*
X539Y2711D01*
X541Y2713D01*
X543Y2716D01*
X545Y2717D01*
X545Y2718D01*
X546Y2718D01*
X548Y2720D01*
X551Y2722D01*
X553Y2724D01*
X556Y2725D01*
X559Y2727D01*
X560Y2727D01*
X560Y2727D01*
X560Y2727D01*
X561Y2727D01*
X562Y2728D01*
X565Y2728D01*
X567Y2729D01*
X570Y2729D01*
X573D01*
X576Y2729D01*
D02*
G37*
G36*
X647Y2766D02*
X648Y2766D01*
X649Y2766D01*
X650Y2765D01*
X652Y2765D01*
X654Y2765D01*
X656Y2764D01*
X658Y2763D01*
X660Y2762D01*
X662Y2761D01*
X664Y2759D01*
X666Y2758D01*
X669Y2756D01*
X671Y2753D01*
X671Y2753D01*
X672Y2753D01*
X673Y2752D01*
X673Y2751D01*
X636Y2714D01*
X636Y2714D01*
X636Y2713D01*
X637Y2713D01*
X637Y2713D01*
X638Y2712D01*
X639Y2711D01*
X641Y2710D01*
X644Y2708D01*
X647Y2707D01*
X650Y2706D01*
X653Y2706D01*
X655D01*
X656Y2706D01*
X658Y2706D01*
X661Y2707D01*
X663Y2708D01*
X666Y2710D01*
X668Y2712D01*
X669Y2713D01*
X670Y2714D01*
X671Y2715D01*
X672Y2716D01*
X672Y2718D01*
X673Y2720D01*
X674Y2722D01*
Y2722D01*
Y2723D01*
X674Y2724D01*
X674Y2726D01*
X674Y2728D01*
X673Y2730D01*
X672Y2733D01*
X671Y2735D01*
X681Y2743D01*
X681Y2743D01*
X681Y2743D01*
X682Y2742D01*
X682Y2741D01*
X682Y2740D01*
X683Y2739D01*
X684Y2737D01*
X685Y2734D01*
X685Y2731D01*
X685Y2727D01*
X685Y2723D01*
X685Y2723D01*
X685Y2723D01*
X685Y2722D01*
X685Y2722D01*
X685Y2721D01*
X684Y2720D01*
X684Y2719D01*
X683Y2717D01*
X682Y2715D01*
X680Y2711D01*
X678Y2708D01*
X675Y2705D01*
X674Y2704D01*
X673Y2703D01*
X672Y2702D01*
X671Y2701D01*
X670Y2700D01*
X668Y2699D01*
X664Y2697D01*
X662Y2696D01*
X660Y2696D01*
X658Y2695D01*
X656Y2694D01*
X653Y2694D01*
X651Y2694D01*
X650D01*
X650Y2694D01*
X649Y2694D01*
X648Y2695D01*
X646Y2695D01*
X645Y2695D01*
X643Y2696D01*
X641Y2696D01*
X639Y2697D01*
X637Y2698D01*
X635Y2700D01*
X633Y2701D01*
X630Y2703D01*
X628Y2705D01*
X626Y2707D01*
X626Y2707D01*
X625Y2707D01*
X624Y2708D01*
X624Y2709D01*
X623Y2710D01*
X622Y2711D01*
X620Y2713D01*
X619Y2715D01*
X617Y2719D01*
X616Y2721D01*
X615Y2723D01*
X614Y2725D01*
X613Y2728D01*
X613Y2730D01*
X612Y2733D01*
Y2733D01*
Y2733D01*
X613Y2734D01*
X612Y2735D01*
X613Y2736D01*
X613Y2738D01*
X613Y2739D01*
X613Y2741D01*
X614Y2743D01*
X615Y2745D01*
X615Y2746D01*
X616Y2749D01*
X617Y2751D01*
X619Y2753D01*
X621Y2755D01*
X622Y2757D01*
X623Y2758D01*
X624Y2758D01*
X625Y2759D01*
X626Y2760D01*
X628Y2761D01*
X629Y2762D01*
X632Y2763D01*
X634Y2764D01*
X636Y2765D01*
X638Y2765D01*
X641Y2766D01*
X643Y2766D01*
X646D01*
X647Y2766D01*
D02*
G37*
G36*
X559Y2632D02*
X533Y2606D01*
X524Y2614D01*
X550Y2641D01*
X559Y2632D01*
D02*
G37*
G36*
X497Y2619D02*
X497D01*
X498Y2618D01*
X499Y2618D01*
X500Y2618D01*
X502Y2617D01*
X504Y2616D01*
X505Y2615D01*
X508Y2614D01*
X500Y2604D01*
X500Y2605D01*
X500Y2605D01*
X499Y2605D01*
X498Y2606D01*
X496Y2606D01*
X495Y2607D01*
X493Y2607D01*
X491Y2607D01*
X491D01*
X490Y2607D01*
X489Y2607D01*
X488Y2606D01*
X487Y2606D01*
X485Y2605D01*
X483Y2603D01*
X481Y2602D01*
X480Y2601D01*
X479Y2600D01*
X478Y2598D01*
X477Y2597D01*
X476Y2595D01*
X475Y2593D01*
X475Y2591D01*
Y2591D01*
X475Y2591D01*
Y2590D01*
X475Y2589D01*
X475Y2588D01*
X476Y2587D01*
X476Y2585D01*
X477Y2584D01*
X477Y2584D01*
X477Y2584D01*
X478Y2584D01*
X478Y2584D01*
X479Y2583D01*
X481Y2582D01*
X483D01*
X483Y2583D01*
X484Y2583D01*
X485Y2583D01*
X486Y2583D01*
X487Y2584D01*
X487Y2584D01*
X487Y2584D01*
X488Y2584D01*
X490Y2585D01*
X491Y2586D01*
X492Y2586D01*
X493Y2587D01*
X495Y2588D01*
X496Y2589D01*
X496Y2589D01*
X497Y2589D01*
X497Y2589D01*
X498Y2590D01*
X499Y2590D01*
X500Y2591D01*
X502Y2592D01*
X505Y2594D01*
X508Y2595D01*
X510Y2596D01*
X512Y2597D01*
X513Y2597D01*
X513Y2597D01*
X513Y2598D01*
X514Y2598D01*
X516Y2598D01*
X517Y2598D01*
X519Y2599D01*
X521D01*
X523Y2598D01*
X523D01*
X524Y2598D01*
X524Y2598D01*
X526Y2597D01*
X527Y2597D01*
X529Y2596D01*
X530Y2595D01*
X532Y2593D01*
X532Y2593D01*
X533Y2593D01*
X533Y2592D01*
X534Y2590D01*
X535Y2589D01*
X536Y2587D01*
X537Y2585D01*
X537Y2583D01*
X537Y2582D01*
X538Y2582D01*
X538Y2580D01*
Y2579D01*
X538Y2577D01*
X537Y2574D01*
X537Y2572D01*
X536Y2570D01*
X536Y2569D01*
X536Y2569D01*
X535Y2567D01*
X534Y2566D01*
X533Y2564D01*
X531Y2562D01*
X530Y2560D01*
X528Y2557D01*
X527Y2556D01*
X526Y2556D01*
X525Y2555D01*
X524Y2554D01*
X521Y2552D01*
X519Y2550D01*
X516Y2549D01*
X512Y2547D01*
X510Y2547D01*
X509Y2546D01*
X509Y2546D01*
X508Y2546D01*
X507D01*
X505Y2547D01*
X503Y2547D01*
X500Y2547D01*
X497Y2548D01*
X493Y2550D01*
X490Y2552D01*
X497Y2562D01*
X497Y2562D01*
X497Y2562D01*
X498Y2561D01*
X499Y2560D01*
X501Y2560D01*
X503Y2559D01*
X504Y2558D01*
X507Y2558D01*
X509Y2558D01*
X509Y2558D01*
X510Y2558D01*
X511Y2558D01*
X512Y2559D01*
X514Y2560D01*
X516Y2561D01*
X518Y2562D01*
X521Y2564D01*
X521Y2565D01*
X522Y2566D01*
X524Y2568D01*
X525Y2569D01*
X526Y2571D01*
X526Y2573D01*
X527Y2575D01*
Y2575D01*
Y2576D01*
Y2577D01*
X527Y2578D01*
X526Y2580D01*
X526Y2581D01*
X525Y2582D01*
X524Y2584D01*
X524Y2584D01*
X524Y2584D01*
X523Y2585D01*
X522Y2585D01*
X521Y2585D01*
X520Y2586D01*
X519Y2586D01*
X517Y2586D01*
X517D01*
X516Y2585D01*
X516Y2585D01*
X515Y2585D01*
X513Y2584D01*
X511Y2583D01*
X510Y2582D01*
X509Y2582D01*
X507Y2581D01*
X506Y2580D01*
X505Y2580D01*
X505Y2580D01*
X504Y2579D01*
X504Y2579D01*
X503Y2578D01*
X502Y2577D01*
X499Y2576D01*
X496Y2575D01*
X493Y2573D01*
X491Y2572D01*
X490Y2571D01*
X489Y2571D01*
X488Y2571D01*
X488Y2571D01*
X487Y2570D01*
X485Y2570D01*
X484Y2570D01*
X482Y2570D01*
X480D01*
X478Y2570D01*
X478D01*
X478Y2570D01*
X477Y2571D01*
X475Y2571D01*
X474Y2572D01*
X473Y2573D01*
X471Y2574D01*
X470Y2575D01*
X470Y2575D01*
X469Y2576D01*
X469Y2577D01*
X468Y2577D01*
X467Y2578D01*
X466Y2580D01*
X466Y2581D01*
X465Y2583D01*
Y2583D01*
X465Y2584D01*
X465Y2584D01*
X465Y2586D01*
X464Y2587D01*
X464Y2589D01*
Y2590D01*
X464Y2592D01*
Y2592D01*
X465Y2592D01*
X465Y2593D01*
X465Y2594D01*
X465Y2595D01*
X466Y2597D01*
X467Y2598D01*
X467Y2600D01*
X468Y2600D01*
X468Y2600D01*
X468Y2601D01*
X469Y2602D01*
X470Y2604D01*
X471Y2605D01*
X472Y2607D01*
X475Y2609D01*
X476Y2610D01*
X477Y2611D01*
X479Y2613D01*
X481Y2614D01*
X483Y2616D01*
X486Y2617D01*
X486Y2617D01*
X486D01*
X487Y2617D01*
X488Y2617D01*
X489Y2618D01*
X491Y2618D01*
X493Y2619D01*
X495Y2619D01*
X497Y2619D01*
D02*
G37*
G36*
X447Y2569D02*
X447D01*
X448Y2569D01*
X449Y2569D01*
X450Y2569D01*
X451Y2568D01*
X453Y2568D01*
X454Y2567D01*
X456Y2566D01*
X456Y2566D01*
X456Y2566D01*
X457Y2565D01*
X458Y2564D01*
X459Y2563D01*
X461Y2562D01*
X463Y2560D01*
X465Y2558D01*
X495Y2527D01*
X487Y2519D01*
X457Y2549D01*
X456Y2549D01*
X456Y2549D01*
X456Y2550D01*
X455Y2551D01*
X453Y2552D01*
X452Y2553D01*
X451Y2554D01*
X449Y2555D01*
X448Y2556D01*
X448Y2556D01*
X447Y2556D01*
X446Y2557D01*
X445Y2557D01*
X444Y2557D01*
X442D01*
X440Y2557D01*
X440D01*
X439Y2556D01*
X439Y2556D01*
X438Y2556D01*
X437Y2555D01*
X435Y2554D01*
X434Y2553D01*
X433Y2552D01*
X432Y2551D01*
X431Y2550D01*
X430Y2549D01*
X429Y2547D01*
X428Y2545D01*
X427Y2542D01*
X427Y2540D01*
Y2539D01*
X427Y2538D01*
X427Y2537D01*
X427Y2537D01*
X428Y2536D01*
X428Y2535D01*
X428Y2533D01*
X429Y2532D01*
X430Y2531D01*
X431Y2529D01*
X432Y2528D01*
X433Y2526D01*
X434Y2524D01*
X436Y2523D01*
X463Y2495D01*
X455Y2487D01*
X405Y2537D01*
X412Y2545D01*
X420Y2537D01*
Y2538D01*
X420Y2538D01*
X419Y2539D01*
X419Y2540D01*
X419Y2541D01*
Y2542D01*
X419Y2544D01*
X419Y2546D01*
X420Y2547D01*
X420Y2549D01*
X421Y2551D01*
X422Y2553D01*
X423Y2555D01*
X424Y2557D01*
X425Y2560D01*
X427Y2561D01*
X428Y2562D01*
X429Y2563D01*
X430Y2564D01*
X432Y2565D01*
X433Y2566D01*
X435Y2567D01*
X437Y2568D01*
X437Y2568D01*
X438Y2568D01*
X439Y2569D01*
X440Y2569D01*
X442Y2569D01*
X444Y2570D01*
X445D01*
X447Y2569D01*
D02*
G37*
G36*
X324Y2477D02*
X324Y2477D01*
X325Y2476D01*
X327Y2476D01*
X329Y2475D01*
X331Y2474D01*
X333Y2473D01*
X336Y2471D01*
X338Y2469D01*
X330Y2460D01*
X330Y2460D01*
X330Y2460D01*
X329Y2461D01*
X329Y2461D01*
X327Y2462D01*
X325Y2463D01*
X323Y2464D01*
X321Y2465D01*
X318Y2465D01*
X315Y2465D01*
X315Y2465D01*
X314Y2465D01*
X313Y2464D01*
X311Y2464D01*
X308Y2463D01*
X306Y2461D01*
X303Y2459D01*
X300Y2456D01*
X299Y2455D01*
X298Y2454D01*
X297Y2453D01*
X296Y2451D01*
X294Y2449D01*
X293Y2446D01*
X292Y2444D01*
X291Y2442D01*
X291Y2441D01*
X291Y2441D01*
Y2440D01*
X291Y2439D01*
X291Y2437D01*
X292Y2435D01*
X292Y2434D01*
X293Y2432D01*
X295Y2430D01*
X295Y2430D01*
X295Y2429D01*
X296Y2429D01*
X297Y2428D01*
X298Y2428D01*
X300Y2427D01*
X301Y2427D01*
X304D01*
X304Y2427D01*
X305Y2427D01*
X306Y2427D01*
X307Y2427D01*
X308Y2428D01*
X309Y2428D01*
X310Y2429D01*
X312Y2429D01*
X313Y2430D01*
X315Y2431D01*
X317Y2432D01*
X320Y2434D01*
X322Y2435D01*
X322Y2435D01*
X323Y2436D01*
X323Y2436D01*
X324Y2437D01*
X325Y2437D01*
X327Y2438D01*
X330Y2440D01*
X333Y2442D01*
X336Y2444D01*
X338Y2444D01*
X339Y2445D01*
X341Y2446D01*
X342Y2446D01*
X342Y2446D01*
X342Y2447D01*
X343Y2447D01*
X343Y2447D01*
X345Y2447D01*
X347Y2448D01*
X349Y2448D01*
X352Y2449D01*
X355Y2448D01*
X358Y2448D01*
X358Y2448D01*
X359Y2448D01*
X360Y2447D01*
X362Y2447D01*
X364Y2446D01*
X366Y2445D01*
X368Y2443D01*
X370Y2441D01*
X370Y2441D01*
X371Y2441D01*
X371Y2441D01*
X371Y2440D01*
X372Y2439D01*
X373Y2437D01*
X375Y2435D01*
X376Y2433D01*
X377Y2431D01*
X378Y2428D01*
X378Y2428D01*
Y2427D01*
X378Y2426D01*
X378Y2425D01*
X378Y2423D01*
X378Y2420D01*
X378Y2417D01*
X377Y2414D01*
X376Y2411D01*
X376Y2411D01*
X376Y2411D01*
X376Y2410D01*
X375Y2410D01*
X375Y2409D01*
X375Y2408D01*
X373Y2406D01*
X372Y2403D01*
X370Y2401D01*
X368Y2398D01*
X365Y2395D01*
X364Y2394D01*
X363Y2393D01*
X362Y2392D01*
X361Y2391D01*
X360Y2390D01*
X357Y2388D01*
X354Y2386D01*
X350Y2384D01*
X347Y2382D01*
X347Y2382D01*
X347Y2382D01*
X346Y2382D01*
X345Y2382D01*
X344Y2381D01*
X341Y2381D01*
X339Y2380D01*
X336Y2380D01*
X332D01*
X329Y2380D01*
X329Y2380D01*
X329D01*
X328Y2381D01*
X327Y2381D01*
X327Y2381D01*
X326Y2381D01*
X323Y2382D01*
X321Y2383D01*
X318Y2385D01*
X315Y2387D01*
X313Y2389D01*
X321Y2399D01*
X321Y2398D01*
X321Y2398D01*
X321Y2398D01*
X323Y2397D01*
X324Y2396D01*
X326Y2395D01*
X328Y2394D01*
X330Y2393D01*
X332Y2393D01*
X332D01*
X333Y2393D01*
X334Y2392D01*
X336Y2393D01*
X337D01*
X339Y2393D01*
X342Y2393D01*
X344Y2394D01*
X344Y2394D01*
X345D01*
X345Y2395D01*
X347Y2396D01*
X348Y2396D01*
X350Y2397D01*
X352Y2399D01*
X355Y2401D01*
X357Y2403D01*
X358Y2404D01*
X359Y2405D01*
X360Y2406D01*
X361Y2408D01*
X362Y2409D01*
X363Y2411D01*
X364Y2413D01*
X365Y2414D01*
X365Y2414D01*
X365Y2415D01*
X366Y2417D01*
X366Y2418D01*
X366Y2420D01*
X366Y2422D01*
X366Y2424D01*
Y2424D01*
X366Y2424D01*
X366Y2425D01*
X365Y2426D01*
X365Y2428D01*
X364Y2429D01*
X363Y2430D01*
X362Y2432D01*
X362Y2432D01*
X362Y2432D01*
X361Y2433D01*
X360Y2433D01*
X359Y2434D01*
X358Y2435D01*
X356Y2435D01*
X355Y2435D01*
X355D01*
X354Y2436D01*
X353Y2435D01*
X352D01*
X350Y2435D01*
X349Y2435D01*
X347Y2434D01*
X344Y2433D01*
X344D01*
X344Y2433D01*
X343Y2432D01*
X342Y2432D01*
X341Y2432D01*
X340Y2431D01*
X339Y2430D01*
X338Y2430D01*
X336Y2429D01*
X335Y2428D01*
X333Y2427D01*
X331Y2426D01*
X329Y2424D01*
X329Y2424D01*
X328Y2424D01*
X328Y2424D01*
X327Y2423D01*
X326Y2423D01*
X325Y2422D01*
X322Y2421D01*
X319Y2419D01*
X316Y2417D01*
X314Y2416D01*
X312Y2416D01*
X311Y2415D01*
X311Y2415D01*
X311D01*
X310Y2415D01*
X308Y2415D01*
X307Y2414D01*
X304Y2414D01*
X302Y2414D01*
X300Y2414D01*
X297Y2414D01*
X297Y2414D01*
X296Y2415D01*
X295Y2415D01*
X294Y2416D01*
X292Y2416D01*
X290Y2418D01*
X288Y2419D01*
X286Y2421D01*
X286Y2421D01*
X286Y2421D01*
X286Y2421D01*
X285Y2422D01*
X285Y2423D01*
X284Y2424D01*
X282Y2426D01*
X281Y2428D01*
X280Y2431D01*
X279Y2433D01*
X279Y2433D01*
Y2434D01*
X279Y2435D01*
X279Y2436D01*
Y2438D01*
X279Y2440D01*
X279Y2443D01*
X280Y2446D01*
X281Y2449D01*
X281Y2449D01*
X281Y2449D01*
X282Y2450D01*
X282Y2450D01*
X282Y2451D01*
X283Y2452D01*
X284Y2454D01*
X285Y2456D01*
X287Y2459D01*
X289Y2461D01*
X291Y2464D01*
X293Y2465D01*
X293Y2466D01*
X294Y2467D01*
X296Y2468D01*
X299Y2470D01*
X301Y2472D01*
X304Y2473D01*
X308Y2475D01*
X308Y2475D01*
X308Y2475D01*
X308Y2475D01*
X309Y2476D01*
X311Y2476D01*
X313Y2476D01*
X315Y2477D01*
X318Y2477D01*
X321D01*
X324Y2477D01*
D02*
G37*
G36*
X395Y2514D02*
X396Y2514D01*
X397Y2514D01*
X399Y2514D01*
X400Y2513D01*
X402Y2513D01*
X404Y2512D01*
X406Y2511D01*
X408Y2510D01*
X410Y2509D01*
X412Y2507D01*
X415Y2506D01*
X417Y2504D01*
X419Y2502D01*
X419Y2501D01*
X420Y2501D01*
X421Y2500D01*
X421Y2499D01*
X384Y2462D01*
X384Y2462D01*
X385Y2461D01*
X385Y2461D01*
X386Y2461D01*
X386Y2460D01*
X387Y2459D01*
X390Y2458D01*
X392Y2456D01*
X395Y2455D01*
X398Y2454D01*
X401Y2454D01*
X403D01*
X404Y2454D01*
X407Y2455D01*
X409Y2455D01*
X411Y2456D01*
X414Y2458D01*
X416Y2460D01*
X417Y2461D01*
X418Y2462D01*
X419Y2463D01*
X420Y2465D01*
X421Y2466D01*
X421Y2468D01*
X422Y2470D01*
Y2471D01*
Y2471D01*
X422Y2472D01*
X422Y2474D01*
X422Y2476D01*
X421Y2478D01*
X420Y2481D01*
X419Y2484D01*
X429Y2491D01*
X429Y2491D01*
X429Y2491D01*
X430Y2490D01*
X430Y2489D01*
X431Y2489D01*
X431Y2488D01*
X432Y2485D01*
X433Y2482D01*
X433Y2479D01*
X434Y2475D01*
X433Y2472D01*
X433Y2471D01*
X433Y2471D01*
X433Y2471D01*
X433Y2470D01*
X433Y2469D01*
X432Y2468D01*
X432Y2467D01*
X432Y2466D01*
X430Y2463D01*
X429Y2460D01*
X426Y2456D01*
X423Y2453D01*
X422Y2452D01*
X421Y2451D01*
X420Y2450D01*
X419Y2449D01*
X418Y2448D01*
X416Y2448D01*
X413Y2446D01*
X411Y2445D01*
X408Y2444D01*
X406Y2443D01*
X404Y2443D01*
X401Y2442D01*
X399Y2442D01*
X399D01*
X398Y2442D01*
X397Y2442D01*
X396Y2443D01*
X394Y2443D01*
X393Y2443D01*
X391Y2444D01*
X389Y2445D01*
X387Y2445D01*
X385Y2446D01*
X383Y2448D01*
X381Y2449D01*
X378Y2451D01*
X376Y2453D01*
X374Y2455D01*
X374Y2455D01*
X373Y2455D01*
X373Y2456D01*
X372Y2457D01*
X371Y2458D01*
X370Y2460D01*
X369Y2461D01*
X367Y2463D01*
X365Y2467D01*
X364Y2469D01*
X363Y2471D01*
X362Y2474D01*
X361Y2476D01*
X361Y2479D01*
X361Y2481D01*
Y2481D01*
Y2482D01*
X361Y2482D01*
X361Y2483D01*
X361Y2484D01*
X361Y2486D01*
X361Y2487D01*
X362Y2489D01*
X362Y2491D01*
X363Y2493D01*
X364Y2495D01*
X365Y2497D01*
X366Y2499D01*
X367Y2501D01*
X369Y2503D01*
X370Y2505D01*
X371Y2506D01*
X372Y2506D01*
X373Y2507D01*
X374Y2508D01*
X376Y2509D01*
X377Y2510D01*
X380Y2512D01*
X382Y2512D01*
X384Y2513D01*
X387Y2514D01*
X389Y2514D01*
X391Y2514D01*
X394D01*
X395Y2514D01*
D02*
G37*
G36*
X276Y2398D02*
X276Y2398D01*
X277Y2398D01*
X279Y2398D01*
X280Y2397D01*
X282Y2396D01*
X283Y2395D01*
X283Y2395D01*
X284Y2395D01*
X284Y2395D01*
X285Y2394D01*
X286Y2393D01*
X288Y2392D01*
X290Y2390D01*
X292Y2388D01*
X303Y2377D01*
X303Y2377D01*
X303Y2376D01*
X304Y2376D01*
X305Y2375D01*
X306Y2374D01*
X307Y2373D01*
X309Y2371D01*
X312Y2368D01*
X314Y2366D01*
X316Y2365D01*
X317Y2364D01*
X318Y2363D01*
X318Y2362D01*
X319Y2362D01*
X319Y2362D01*
X320Y2361D01*
X321Y2361D01*
X322Y2360D01*
X323Y2360D01*
X326Y2358D01*
X318Y2350D01*
X317D01*
X317Y2350D01*
X316Y2350D01*
X315Y2351D01*
X314Y2351D01*
X313Y2352D01*
X311Y2353D01*
X310Y2354D01*
Y2354D01*
X309Y2353D01*
X309Y2351D01*
X309Y2349D01*
X309Y2347D01*
X308Y2344D01*
X307Y2342D01*
X306Y2339D01*
X306Y2339D01*
X306Y2338D01*
X305Y2337D01*
X304Y2336D01*
X303Y2334D01*
X302Y2332D01*
X300Y2330D01*
X299Y2328D01*
X298Y2328D01*
X297Y2327D01*
X296Y2326D01*
X296Y2326D01*
X293Y2324D01*
X291Y2323D01*
X288Y2321D01*
X285Y2320D01*
X282Y2320D01*
X280D01*
X279Y2320D01*
X277Y2320D01*
X275Y2321D01*
X272Y2322D01*
X270Y2323D01*
X268Y2324D01*
X267Y2325D01*
X267Y2326D01*
X267Y2326D01*
X266Y2327D01*
X265Y2328D01*
X264Y2329D01*
X264Y2331D01*
X263Y2332D01*
X262Y2334D01*
Y2334D01*
X262Y2335D01*
X262Y2336D01*
X261Y2337D01*
X261Y2338D01*
Y2340D01*
X261Y2341D01*
X262Y2343D01*
Y2343D01*
X262Y2344D01*
X262Y2345D01*
X262Y2346D01*
X263Y2347D01*
X263Y2349D01*
X264Y2350D01*
X265Y2352D01*
X265Y2352D01*
X265Y2353D01*
X266Y2353D01*
X266Y2354D01*
X267Y2356D01*
X268Y2357D01*
X270Y2359D01*
X271Y2361D01*
X271Y2361D01*
X272Y2361D01*
X272Y2362D01*
X273Y2363D01*
X273Y2364D01*
X274Y2365D01*
X275Y2366D01*
X276Y2367D01*
X278Y2370D01*
X280Y2373D01*
X282Y2376D01*
X283Y2378D01*
X283Y2379D01*
X283Y2379D01*
X283Y2379D01*
X283Y2380D01*
X282Y2381D01*
X282Y2381D01*
X281Y2381D01*
X281Y2381D01*
X281Y2381D01*
X281Y2382D01*
X280Y2383D01*
X278Y2384D01*
X277Y2385D01*
X275Y2386D01*
X273Y2386D01*
X272Y2386D01*
X271D01*
X271Y2386D01*
X269Y2386D01*
X268Y2385D01*
X266Y2384D01*
X264Y2383D01*
X261Y2381D01*
X259Y2379D01*
X258Y2378D01*
X257Y2377D01*
X256Y2376D01*
X255Y2374D01*
X254Y2372D01*
X253Y2370D01*
X252Y2368D01*
Y2368D01*
X252Y2367D01*
Y2366D01*
X252Y2365D01*
X253Y2363D01*
X253Y2361D01*
X254Y2359D01*
X255Y2357D01*
X246Y2350D01*
X246Y2350D01*
Y2350D01*
X245Y2351D01*
X245Y2352D01*
X244Y2354D01*
X243Y2355D01*
X242Y2357D01*
X242Y2360D01*
X241Y2362D01*
Y2362D01*
Y2363D01*
X241Y2364D01*
X241Y2366D01*
X242Y2367D01*
X242Y2369D01*
X243Y2372D01*
X244Y2374D01*
X244Y2374D01*
Y2375D01*
X244Y2375D01*
X244Y2376D01*
X245Y2377D01*
X246Y2379D01*
X247Y2380D01*
X249Y2383D01*
X251Y2385D01*
X253Y2388D01*
X254Y2389D01*
X256Y2390D01*
X257Y2391D01*
X259Y2393D01*
X261Y2394D01*
X263Y2395D01*
X265Y2396D01*
X265Y2397D01*
X266Y2397D01*
X267Y2397D01*
X268Y2398D01*
X270Y2398D01*
X272Y2398D01*
X273Y2399D01*
X275D01*
X276Y2398D01*
D02*
G37*
G36*
X221Y2346D02*
X223Y2345D01*
X225Y2345D01*
X228Y2344D01*
X229Y2343D01*
X230Y2342D01*
X232Y2341D01*
X233Y2340D01*
X235Y2339D01*
X237Y2337D01*
X271Y2303D01*
X262Y2294D01*
X231Y2326D01*
X231Y2326D01*
X231Y2326D01*
X230Y2327D01*
X229Y2328D01*
X228Y2328D01*
X227Y2330D01*
X225Y2331D01*
X224Y2332D01*
X223Y2332D01*
X223Y2332D01*
X222Y2332D01*
X222Y2333D01*
X221Y2333D01*
X220Y2333D01*
X219Y2333D01*
X217D01*
X216Y2333D01*
X216D01*
X216Y2333D01*
X215Y2332D01*
X214Y2332D01*
X213Y2332D01*
X212Y2331D01*
X211Y2330D01*
X210Y2329D01*
X209Y2329D01*
X209Y2328D01*
X208Y2327D01*
X207Y2326D01*
X206Y2324D01*
X205Y2322D01*
X205Y2319D01*
X204Y2317D01*
X204Y2316D01*
Y2316D01*
X205Y2314D01*
X205Y2312D01*
X206Y2310D01*
X208Y2308D01*
X210Y2305D01*
X212Y2302D01*
X241Y2273D01*
X233Y2265D01*
X200Y2297D01*
X200Y2297D01*
X200Y2297D01*
X200Y2297D01*
X199Y2298D01*
X198Y2299D01*
X197Y2300D01*
X195Y2301D01*
X193Y2302D01*
X192Y2303D01*
X190Y2303D01*
X188D01*
X187Y2303D01*
X185Y2303D01*
X183Y2302D01*
X182Y2301D01*
X180Y2300D01*
X179Y2299D01*
X179Y2298D01*
X178Y2297D01*
X177Y2296D01*
X176Y2294D01*
X176Y2293D01*
X175Y2291D01*
Y2291D01*
X175Y2290D01*
Y2289D01*
X175Y2288D01*
X175Y2286D01*
X175Y2285D01*
X176Y2283D01*
X176Y2281D01*
X176Y2281D01*
X177Y2280D01*
X178Y2279D01*
X178Y2278D01*
X180Y2276D01*
X181Y2274D01*
X183Y2272D01*
X186Y2269D01*
X211Y2243D01*
X203Y2235D01*
X153Y2285D01*
X160Y2292D01*
X167Y2285D01*
X167Y2286D01*
X167Y2286D01*
X167Y2288D01*
X167Y2289D01*
Y2291D01*
Y2293D01*
X167Y2295D01*
X168Y2298D01*
X168Y2298D01*
X168Y2299D01*
X169Y2300D01*
X169Y2301D01*
X170Y2303D01*
X171Y2305D01*
X173Y2307D01*
X175Y2309D01*
X175Y2310D01*
X177Y2311D01*
X178Y2312D01*
X180Y2313D01*
X182Y2314D01*
X184Y2315D01*
X186Y2316D01*
X186Y2316D01*
X187Y2316D01*
X188Y2316D01*
X191D01*
X193Y2316D01*
X195Y2315D01*
X198Y2314D01*
Y2314D01*
X197Y2315D01*
X197Y2316D01*
Y2317D01*
X197Y2318D01*
Y2319D01*
Y2321D01*
X197Y2323D01*
X198Y2325D01*
X198Y2327D01*
X198Y2329D01*
X199Y2331D01*
X200Y2333D01*
X201Y2335D01*
X203Y2337D01*
X204Y2339D01*
X205Y2339D01*
X206Y2340D01*
X206Y2340D01*
X207Y2341D01*
X209Y2342D01*
X211Y2344D01*
X214Y2345D01*
X217Y2346D01*
X220Y2346D01*
X220D01*
X221Y2346D01*
D02*
G37*
G36*
X131Y2281D02*
X122Y2273D01*
X112Y2283D01*
X121Y2291D01*
X131Y2281D01*
D02*
G37*
G36*
X80Y2236D02*
X82D01*
X83Y2236D01*
X85Y2235D01*
X87Y2235D01*
X90Y2235D01*
X92Y2234D01*
X94Y2233D01*
X96Y2232D01*
X99Y2231D01*
X92Y2220D01*
X92Y2220D01*
X91Y2220D01*
X91Y2220D01*
X90Y2221D01*
X89Y2221D01*
X88Y2221D01*
X86Y2222D01*
X83Y2223D01*
X80Y2224D01*
X77Y2224D01*
X74Y2224D01*
X73Y2224D01*
X72Y2223D01*
X71Y2223D01*
X69Y2222D01*
X67Y2221D01*
X64Y2220D01*
X61Y2218D01*
X59Y2216D01*
X58Y2215D01*
X58Y2214D01*
X57Y2214D01*
X56Y2213D01*
X55Y2211D01*
X53Y2208D01*
X51Y2205D01*
X50Y2202D01*
X49Y2199D01*
X49Y2198D01*
X49Y2198D01*
X49Y2197D01*
X49Y2195D01*
Y2193D01*
X49Y2190D01*
X50Y2187D01*
X51Y2184D01*
X52Y2181D01*
X52Y2181D01*
X52Y2180D01*
X53Y2180D01*
X53Y2179D01*
X53Y2179D01*
X54Y2178D01*
X55Y2176D01*
X57Y2173D01*
X59Y2171D01*
X61Y2168D01*
X63Y2165D01*
X63Y2165D01*
X64Y2165D01*
X64Y2165D01*
X65Y2164D01*
X66Y2163D01*
X67Y2162D01*
X68Y2162D01*
X69Y2160D01*
X71Y2158D01*
X75Y2156D01*
X78Y2154D01*
X81Y2153D01*
X81Y2152D01*
X82Y2152D01*
X82Y2152D01*
X83Y2152D01*
X85Y2151D01*
X87Y2151D01*
X90Y2150D01*
X92Y2150D01*
X96D01*
X99Y2151D01*
X99Y2151D01*
X99D01*
X100Y2151D01*
X100Y2151D01*
X102Y2152D01*
X104Y2153D01*
X106Y2154D01*
X109Y2155D01*
X111Y2157D01*
X114Y2159D01*
X115Y2160D01*
X115Y2161D01*
X116Y2161D01*
X116Y2162D01*
X118Y2164D01*
X119Y2167D01*
X121Y2170D01*
X122Y2173D01*
X122Y2175D01*
X122Y2177D01*
Y2177D01*
Y2177D01*
Y2178D01*
Y2178D01*
Y2179D01*
X122Y2180D01*
X122Y2183D01*
X121Y2186D01*
X120Y2189D01*
X119Y2193D01*
X117Y2197D01*
X128Y2204D01*
X128Y2204D01*
X128Y2203D01*
X129Y2202D01*
X129Y2201D01*
X130Y2200D01*
X131Y2199D01*
X131Y2197D01*
X132Y2195D01*
X133Y2191D01*
X134Y2186D01*
X135Y2184D01*
X135Y2181D01*
X135Y2179D01*
X135Y2176D01*
Y2176D01*
X135Y2176D01*
X135Y2175D01*
X134Y2174D01*
X134Y2173D01*
X134Y2171D01*
X133Y2170D01*
X133Y2168D01*
X132Y2166D01*
X131Y2164D01*
X130Y2163D01*
X129Y2160D01*
X128Y2158D01*
X126Y2156D01*
X124Y2154D01*
X122Y2152D01*
X121Y2151D01*
X120Y2150D01*
X120Y2150D01*
X118Y2148D01*
X117Y2147D01*
X115Y2146D01*
X112Y2144D01*
X108Y2142D01*
X104Y2140D01*
X102Y2139D01*
X100Y2139D01*
X100D01*
X99Y2138D01*
X99D01*
X98Y2138D01*
X97Y2138D01*
X96Y2138D01*
X92D01*
X89Y2138D01*
X85Y2139D01*
X81Y2139D01*
X76Y2141D01*
X76Y2141D01*
X75Y2141D01*
X75Y2142D01*
X74Y2142D01*
X73Y2142D01*
X72Y2143D01*
X70Y2144D01*
X69Y2145D01*
X67Y2146D01*
X65Y2147D01*
X62Y2150D01*
X58Y2152D01*
X54Y2156D01*
X54Y2156D01*
X53Y2156D01*
X53Y2157D01*
X52Y2158D01*
X51Y2159D01*
X50Y2160D01*
X49Y2161D01*
X48Y2163D01*
X46Y2166D01*
X43Y2170D01*
X41Y2174D01*
X39Y2179D01*
X39Y2179D01*
Y2179D01*
X39Y2180D01*
X39Y2181D01*
X38Y2182D01*
X38Y2183D01*
X38Y2186D01*
X37Y2190D01*
Y2194D01*
X38Y2198D01*
X39Y2203D01*
X39Y2203D01*
Y2203D01*
X39Y2204D01*
X39Y2205D01*
X40Y2206D01*
X40Y2207D01*
X41Y2208D01*
X41Y2210D01*
X42Y2211D01*
X43Y2213D01*
X45Y2217D01*
X48Y2220D01*
X51Y2224D01*
X52Y2225D01*
X53Y2225D01*
X54Y2226D01*
X55Y2227D01*
X56Y2228D01*
X58Y2229D01*
X61Y2231D01*
X65Y2233D01*
X67Y2234D01*
X69Y2235D01*
X72Y2235D01*
X74Y2236D01*
X74D01*
X74Y2236D01*
X75Y2236D01*
X78D01*
X80Y2236D01*
D02*
G37*
G36*
X190Y2222D02*
X182Y2214D01*
X131Y2264D01*
X140Y2272D01*
X190Y2222D01*
D02*
G37*
G36*
X168Y2200D02*
X160Y2192D01*
X91Y2261D01*
X99Y2269D01*
X168Y2200D01*
D02*
G37*
%LPC*%
G36*
X800Y2911D02*
X799Y2911D01*
X798D01*
X797Y2910D01*
X794Y2910D01*
X792Y2909D01*
X790Y2909D01*
X787Y2907D01*
X786Y2906D01*
X784Y2904D01*
X784Y2904D01*
X782Y2902D01*
X781Y2901D01*
X780Y2898D01*
X779Y2896D01*
X779Y2893D01*
Y2891D01*
Y2890D01*
X779Y2889D01*
X779Y2889D01*
X779Y2889D01*
X779Y2888D01*
X779Y2887D01*
X779Y2886D01*
X780Y2885D01*
X780Y2884D01*
X781Y2883D01*
X782Y2881D01*
X782Y2880D01*
X783Y2878D01*
X785Y2876D01*
X786Y2875D01*
X787Y2873D01*
X789Y2871D01*
X789Y2871D01*
X789Y2871D01*
X790Y2870D01*
X791Y2870D01*
X792Y2869D01*
X793Y2868D01*
X795Y2866D01*
X798Y2864D01*
X801Y2863D01*
X804Y2861D01*
X806Y2861D01*
X808Y2861D01*
X808Y2861D01*
X808Y2861D01*
X809D01*
X811Y2861D01*
X813Y2861D01*
X815Y2862D01*
X818Y2863D01*
X820Y2865D01*
X822Y2866D01*
X823Y2867D01*
X823Y2867D01*
X824Y2868D01*
X825Y2869D01*
X826Y2871D01*
X827Y2873D01*
X828Y2876D01*
X829Y2879D01*
X829Y2880D01*
Y2882D01*
X829Y2882D01*
X829Y2882D01*
X829Y2883D01*
X828Y2883D01*
X828Y2884D01*
X828Y2885D01*
X828Y2886D01*
X827Y2888D01*
X827Y2889D01*
X826Y2890D01*
X825Y2892D01*
X824Y2894D01*
X823Y2895D01*
X822Y2897D01*
X820Y2899D01*
X818Y2901D01*
X818Y2901D01*
X818Y2901D01*
X817Y2902D01*
X817Y2902D01*
X816Y2903D01*
X815Y2904D01*
X813Y2905D01*
X810Y2907D01*
X806Y2909D01*
X803Y2910D01*
X801Y2910D01*
X800Y2911D01*
X800Y2911D01*
D02*
G37*
G36*
X645Y2756D02*
X644Y2755D01*
X643Y2756D01*
X642Y2755D01*
X640Y2755D01*
X637Y2754D01*
X635Y2754D01*
X632Y2752D01*
X631Y2751D01*
X629Y2750D01*
X629Y2749D01*
X629Y2749D01*
X628Y2748D01*
X626Y2746D01*
X625Y2744D01*
X624Y2742D01*
X624Y2739D01*
X624Y2736D01*
Y2736D01*
X624Y2735D01*
X624Y2733D01*
X624Y2731D01*
X625Y2729D01*
X626Y2726D01*
X628Y2724D01*
X630Y2721D01*
X658Y2749D01*
X657Y2749D01*
X657Y2750D01*
X657Y2750D01*
X656Y2750D01*
X655Y2751D01*
X653Y2752D01*
X652Y2753D01*
X649Y2754D01*
X647Y2755D01*
X645Y2755D01*
X645Y2756D01*
D02*
G37*
G36*
X393Y2504D02*
X393Y2504D01*
X391Y2504D01*
X390Y2503D01*
X388Y2503D01*
X385Y2503D01*
X383Y2502D01*
X380Y2500D01*
X379Y2499D01*
X378Y2498D01*
X377Y2497D01*
X377Y2497D01*
X376Y2496D01*
X375Y2494D01*
X373Y2492D01*
X373Y2490D01*
X372Y2487D01*
X372Y2484D01*
Y2484D01*
X372Y2483D01*
X372Y2481D01*
X372Y2479D01*
X373Y2477D01*
X374Y2475D01*
X376Y2472D01*
X378Y2469D01*
X406Y2497D01*
X406Y2497D01*
X405Y2498D01*
X405Y2498D01*
X405Y2498D01*
X403Y2499D01*
X402Y2500D01*
X400Y2501D01*
X397Y2502D01*
X395Y2503D01*
X393Y2504D01*
X393Y2504D01*
D02*
G37*
G36*
X290Y2372D02*
X290Y2372D01*
Y2372D01*
X290Y2372D01*
X289Y2371D01*
X289Y2371D01*
X289Y2370D01*
X288Y2369D01*
X288Y2368D01*
X287Y2367D01*
X286Y2365D01*
X285Y2364D01*
X284Y2362D01*
X283Y2361D01*
X282Y2359D01*
X281Y2357D01*
X279Y2355D01*
X279Y2355D01*
X279Y2354D01*
X278Y2353D01*
X277Y2352D01*
X275Y2349D01*
X274Y2347D01*
X274Y2346D01*
X274Y2346D01*
Y2346D01*
X273Y2345D01*
X273Y2344D01*
X273Y2342D01*
X273Y2340D01*
X273Y2340D01*
Y2339D01*
X273Y2339D01*
X274Y2338D01*
X275Y2337D01*
X275Y2336D01*
X276Y2335D01*
X276Y2335D01*
X276Y2334D01*
X277Y2334D01*
X278Y2333D01*
X279Y2333D01*
X281Y2332D01*
X282Y2332D01*
X284Y2332D01*
X284D01*
X285Y2332D01*
X286Y2332D01*
X287Y2333D01*
X289Y2333D01*
X290Y2334D01*
X292Y2335D01*
X294Y2337D01*
X295Y2338D01*
X296Y2339D01*
X297Y2340D01*
X298Y2342D01*
X299Y2344D01*
X300Y2346D01*
X301Y2348D01*
X301Y2348D01*
X301Y2349D01*
X301Y2350D01*
X301Y2351D01*
X301Y2353D01*
Y2355D01*
X301Y2357D01*
X300Y2359D01*
Y2360D01*
X300Y2360D01*
X300Y2361D01*
X299Y2362D01*
X298Y2364D01*
X297Y2365D01*
X295Y2367D01*
X293Y2369D01*
X290Y2372D01*
D02*
G37*
%LPD*%
D11*
X1764Y2746D02*
D03*
X294Y251D02*
D03*
D12*
X1867Y682D02*
X1951Y633D01*
X1867Y682D02*
X1867D01*
X1778Y733D02*
X1867Y682D01*
X1918Y770D01*
X1867Y682D02*
X1867D01*
X1818Y597D02*
X1867Y682D01*
D18*
X1436Y251D02*
X1867Y682D01*
X294Y251D02*
X1436D01*
X2387Y1562D02*
Y2553D01*
X2375Y1562D02*
X2387D01*
X2194Y2746D02*
X2387Y2553D01*
X1764Y2746D02*
X2194D01*
X294Y251D02*
Y1450D01*
X952Y1473D02*
Y1974D01*
X1404Y2425D01*
X1896D01*
X1967Y2495D01*
X2115D01*
X2261Y2350D01*
X1168Y1473D02*
Y2083D01*
X1435Y2350D01*
X2007D01*
X2243Y1346D02*
X2248Y1342D01*
X699Y1346D02*
X2243D01*
X2117Y1118D02*
X2121Y1122D01*
X673Y1118D02*
X2117D01*
X673Y902D02*
X1994D01*
D19*
X2007Y2350D02*
D03*
D20*
X2261D02*
D03*
D21*
X1867Y682D02*
D03*
D22*
X1994Y902D02*
D03*
X2121Y1122D02*
D03*
X2248Y1342D02*
D03*
X2375Y1562D02*
D03*
D23*
X294Y1450D02*
D03*
X952Y1473D02*
D03*
X1168D02*
D03*
X699Y1346D02*
D03*
X673Y1118D02*
D03*
Y902D02*
D03*
M02*
