G04*
G04 #@! TF.GenerationSoftware,Altium Limited,Altium NEXUS,1.0.9 (89)*
G04*
G04 Layer_Color=16711935*
%FSLAX42Y42*%
%MOMM*%
G71*
G01*
G75*
%ADD12C,1.00*%
%ADD14P,1.87X8X22.5*%
%ADD15R,1.73X1.73*%
%ADD16C,1.73*%
%ADD27R,0.95X1.73*%
%ADD28C,1.20*%
G04:AMPARAMS|DCode=29|XSize=1.73mm|YSize=1.2mm|CornerRadius=0mm|HoleSize=0mm|Usage=FLASHONLY|Rotation=90.000|XOffset=0mm|YOffset=0mm|HoleType=Round|Shape=Octagon|*
%AMOCTAGOND29*
4,1,8,0.30,0.86,-0.30,0.86,-0.60,0.56,-0.60,-0.56,-0.30,-0.86,0.30,-0.86,0.60,-0.56,0.60,0.56,0.30,0.86,0.0*
%
%ADD29OCTAGOND29*%

G04:AMPARAMS|DCode=30|XSize=1.73mm|YSize=1.2mm|CornerRadius=0mm|HoleSize=0mm|Usage=FLASHONLY|Rotation=0.000|XOffset=0mm|YOffset=0mm|HoleType=Round|Shape=Octagon|*
%AMOCTAGOND30*
4,1,8,0.86,-0.30,0.86,0.30,0.56,0.60,-0.56,0.60,-0.86,0.30,-0.86,-0.30,-0.56,-0.60,0.56,-0.60,0.86,-0.30,0.0*
%
%ADD30OCTAGOND30*%

%ADD31O,2.20X5.20*%
D12*
X7633Y9252D02*
Y9452D01*
X7530Y9350D02*
X7730D01*
D14*
X7379D02*
D03*
D15*
X7633D02*
D03*
X7252Y9639D02*
D03*
D16*
X8268D02*
D03*
X8014D02*
D03*
X7760D02*
D03*
X7506D02*
D03*
D27*
X8725Y9614D02*
D03*
X8496D02*
D03*
X7391Y8928D02*
D03*
X7620D02*
D03*
D28*
X9131Y9266D02*
D03*
Y9012D02*
D03*
Y8758D02*
D03*
Y8504D02*
D03*
D29*
X8953Y6439D02*
D03*
X8804D02*
D03*
X8953Y8014D02*
D03*
X8655Y6439D02*
D03*
X8506D02*
D03*
X8357D02*
D03*
X8207D02*
D03*
X8058D02*
D03*
X7909D02*
D03*
Y8014D02*
D03*
X8058D02*
D03*
X8207D02*
D03*
X8357D02*
D03*
X8506D02*
D03*
X8655D02*
D03*
X8804D02*
D03*
D30*
X9131Y6710D02*
D03*
Y7754D02*
D03*
Y7605D02*
D03*
Y7456D02*
D03*
Y7307D02*
D03*
Y7158D02*
D03*
Y7008D02*
D03*
Y6859D02*
D03*
D31*
X9627Y9398D02*
D03*
Y6858D02*
D03*
M02*
