G04*
G04 #@! TF.GenerationSoftware,Altium Limited,Altium NEXUS,1.0.9 (89)*
G04*
G04 Layer_Color=32896*
%FSLAX42Y42*%
%MOMM*%
G71*
G01*
G75*
%ADD10C,0.25*%
D10*
X9347Y9538D02*
X9296D01*
X9322D01*
Y9690D01*
X9347Y9665D01*
X9220D02*
X9195Y9690D01*
X9144D01*
X9119Y9665D01*
Y9563D01*
X9144Y9538D01*
X9195D01*
X9220Y9563D01*
Y9665D01*
X9068Y9639D02*
Y9563D01*
X9042Y9538D01*
X8966D01*
Y9639D01*
X8814Y9690D02*
X8916D01*
Y9614D01*
X8865D01*
X8916D01*
Y9538D01*
X7772Y8649D02*
X7722D01*
X7747D01*
Y8801D01*
X7772Y8776D01*
X7645D02*
X7620Y8801D01*
X7569D01*
X7544Y8776D01*
Y8674D01*
X7569Y8649D01*
X7620D01*
X7645Y8674D01*
Y8776D01*
X7493Y8649D02*
Y8750D01*
X7417D01*
X7392Y8725D01*
Y8649D01*
X7239Y8801D02*
X7341D01*
Y8725D01*
X7290D01*
X7341D01*
Y8649D01*
X8903Y8953D02*
X8852D01*
X8877D01*
Y8801D01*
X8903D01*
X8852D01*
X8674Y8928D02*
X8700Y8953D01*
X8750D01*
X8776Y8928D01*
Y8826D01*
X8750Y8801D01*
X8700D01*
X8674Y8826D01*
X8522Y8801D02*
X8623D01*
X8522Y8903D01*
Y8928D01*
X8547Y8953D01*
X8598D01*
X8623Y8928D01*
M02*
