G04*
G04 #@! TF.GenerationSoftware,Altium Limited,Altium NEXUS,1.0.9 (89)*
G04*
G04 Layer_Physical_Order=1*
G04 Layer_Color=255*
%FSLAX42Y42*%
%MOMM*%
G71*
G01*
G75*
G04:AMPARAMS|DCode=11|XSize=4mm|YSize=5mm|CornerRadius=0mm|HoleSize=0mm|Usage=FLASHONLY|Rotation=270.000|XOffset=0mm|YOffset=0mm|HoleType=Round|Shape=Octagon|*
%AMOCTAGOND11*
4,1,8,2.50,1.00,2.50,-1.00,1.50,-2.00,-1.50,-2.00,-2.50,-1.00,-2.50,1.00,-1.50,2.00,1.50,2.00,2.50,1.00,0.0*
%
%ADD11OCTAGOND11*%

%ADD12C,1.00*%
%ADD17C,0.50*%
%ADD18P,1.65X8X22.5*%
%ADD19R,1.52X1.52*%
%ADD20C,1.52*%
%ADD21C,1.27*%
G36*
X7665Y7599D02*
X7665Y7599D01*
X7665Y7599D01*
X7664Y7598D01*
X7664Y7597D01*
X7663Y7595D01*
X7663Y7594D01*
X7663Y7592D01*
X7663Y7591D01*
Y7590D01*
X7663Y7589D01*
X7663Y7589D01*
X7663Y7587D01*
X7664Y7586D01*
X7664Y7585D01*
X7665Y7584D01*
X7665Y7584D01*
X7665Y7583D01*
X7666Y7583D01*
X7667Y7582D01*
X7667Y7581D01*
X7669Y7581D01*
X7670Y7580D01*
X7671Y7580D01*
X7672Y7579D01*
X7672Y7579D01*
X7674Y7579D01*
X7675Y7579D01*
X7677Y7578D01*
X7680Y7578D01*
X7682Y7578D01*
X7685Y7578D01*
X7722D01*
Y7566D01*
X7652D01*
Y7577D01*
X7662D01*
X7662Y7577D01*
X7661Y7577D01*
X7660Y7578D01*
X7659Y7579D01*
X7657Y7580D01*
X7655Y7581D01*
X7654Y7583D01*
X7653Y7584D01*
X7653Y7584D01*
X7652Y7585D01*
X7652Y7585D01*
X7652Y7586D01*
X7651Y7587D01*
X7651Y7589D01*
X7651Y7590D01*
X7650Y7592D01*
Y7593D01*
X7651Y7594D01*
X7651Y7595D01*
X7651Y7597D01*
X7652Y7599D01*
X7653Y7601D01*
X7654Y7604D01*
X7665Y7599D01*
D02*
G37*
G36*
X7689Y7552D02*
X7691D01*
X7692Y7552D01*
X7694Y7552D01*
X7697Y7551D01*
X7700Y7550D01*
X7704Y7549D01*
X7707Y7548D01*
X7707D01*
X7707Y7548D01*
X7708Y7548D01*
X7708Y7547D01*
X7710Y7546D01*
X7711Y7545D01*
X7713Y7543D01*
X7715Y7541D01*
X7717Y7539D01*
X7719Y7536D01*
Y7536D01*
X7719Y7536D01*
X7719Y7536D01*
X7720Y7535D01*
X7720Y7534D01*
X7720Y7533D01*
X7721Y7531D01*
X7722Y7529D01*
X7722Y7526D01*
X7723Y7523D01*
X7723Y7519D01*
Y7518D01*
X7723Y7517D01*
X7723Y7516D01*
X7723Y7514D01*
X7722Y7513D01*
X7722Y7511D01*
X7721Y7507D01*
X7720Y7505D01*
X7719Y7503D01*
X7718Y7501D01*
X7717Y7499D01*
X7715Y7498D01*
X7714Y7496D01*
X7714Y7496D01*
X7713Y7496D01*
X7713Y7495D01*
X7712Y7495D01*
X7711Y7494D01*
X7710Y7493D01*
X7709Y7492D01*
X7707Y7492D01*
X7705Y7491D01*
X7703Y7490D01*
X7701Y7489D01*
X7698Y7488D01*
X7696Y7488D01*
X7693Y7487D01*
X7690Y7487D01*
X7687Y7487D01*
X7686D01*
X7686D01*
X7685Y7487D01*
X7684D01*
X7682Y7487D01*
X7680Y7488D01*
X7678Y7488D01*
X7676Y7488D01*
X7674Y7489D01*
X7671Y7490D01*
X7669Y7490D01*
X7667Y7492D01*
X7664Y7493D01*
X7662Y7494D01*
X7660Y7496D01*
X7658Y7498D01*
X7658Y7498D01*
X7658Y7498D01*
X7658Y7499D01*
X7657Y7499D01*
X7656Y7500D01*
X7656Y7501D01*
X7655Y7502D01*
X7654Y7504D01*
X7654Y7505D01*
X7653Y7507D01*
X7652Y7511D01*
X7651Y7515D01*
X7651Y7517D01*
X7650Y7519D01*
Y7521D01*
X7651Y7522D01*
X7651Y7523D01*
X7651Y7524D01*
X7651Y7526D01*
X7652Y7528D01*
X7653Y7532D01*
X7653Y7533D01*
X7654Y7535D01*
X7655Y7537D01*
X7657Y7539D01*
X7658Y7541D01*
X7660Y7543D01*
X7660Y7543D01*
X7660Y7543D01*
X7661Y7544D01*
X7662Y7544D01*
X7663Y7545D01*
X7664Y7546D01*
X7665Y7547D01*
X7667Y7548D01*
X7668Y7548D01*
X7670Y7549D01*
X7672Y7550D01*
X7675Y7551D01*
X7677Y7551D01*
X7680Y7552D01*
X7683Y7552D01*
X7686Y7552D01*
X7686D01*
X7686D01*
X7687D01*
X7688D01*
X7689Y7552D01*
D02*
G37*
G36*
X7703Y7477D02*
X7705Y7477D01*
X7706Y7477D01*
X7708Y7476D01*
X7710Y7475D01*
X7712Y7474D01*
X7713Y7474D01*
X7713Y7473D01*
X7714Y7472D01*
X7715Y7471D01*
X7717Y7470D01*
X7718Y7468D01*
X7719Y7466D01*
X7720Y7464D01*
X7721Y7464D01*
X7721Y7463D01*
X7721Y7461D01*
X7722Y7460D01*
X7722Y7457D01*
X7723Y7455D01*
X7723Y7452D01*
X7723Y7449D01*
Y7448D01*
X7723Y7447D01*
Y7446D01*
X7723Y7445D01*
X7722Y7442D01*
X7722Y7438D01*
X7721Y7435D01*
X7719Y7432D01*
X7719Y7430D01*
X7718Y7429D01*
Y7428D01*
X7717Y7428D01*
X7716Y7427D01*
X7715Y7426D01*
X7713Y7425D01*
X7711Y7423D01*
X7708Y7422D01*
X7705Y7420D01*
X7701Y7420D01*
X7699Y7431D01*
X7699D01*
X7699D01*
X7700Y7431D01*
X7701Y7432D01*
X7703Y7432D01*
X7705Y7433D01*
X7706Y7434D01*
X7708Y7435D01*
X7710Y7437D01*
X7710Y7437D01*
X7710Y7437D01*
X7711Y7438D01*
X7712Y7440D01*
X7712Y7442D01*
X7713Y7444D01*
X7713Y7446D01*
X7713Y7449D01*
Y7451D01*
X7713Y7452D01*
X7713Y7454D01*
X7713Y7456D01*
X7712Y7458D01*
X7711Y7460D01*
X7710Y7461D01*
X7710Y7461D01*
X7710Y7462D01*
X7709Y7463D01*
X7708Y7463D01*
X7707Y7464D01*
X7705Y7465D01*
X7704Y7465D01*
X7702Y7465D01*
X7702D01*
X7702D01*
X7701Y7465D01*
X7700Y7465D01*
X7699Y7464D01*
X7698Y7464D01*
X7697Y7463D01*
X7696Y7462D01*
X7696Y7462D01*
X7696Y7461D01*
X7696Y7460D01*
X7695Y7459D01*
X7694Y7458D01*
X7694Y7456D01*
X7693Y7454D01*
X7693Y7453D01*
X7693Y7451D01*
X7692Y7450D01*
Y7450D01*
X7692Y7449D01*
X7692Y7448D01*
X7692Y7448D01*
X7691Y7447D01*
X7691Y7445D01*
X7690Y7443D01*
X7689Y7440D01*
X7688Y7437D01*
X7687Y7434D01*
X7687Y7433D01*
X7686Y7432D01*
X7686Y7431D01*
X7686Y7431D01*
X7685Y7430D01*
X7685Y7429D01*
X7684Y7428D01*
X7683Y7426D01*
X7681Y7425D01*
X7680Y7424D01*
X7680Y7424D01*
X7679Y7424D01*
X7678Y7423D01*
X7677Y7423D01*
X7676Y7422D01*
X7674Y7422D01*
X7672Y7422D01*
X7670Y7422D01*
X7670D01*
X7670D01*
X7669Y7422D01*
X7668Y7422D01*
X7666Y7422D01*
X7665Y7422D01*
X7663Y7423D01*
X7662Y7424D01*
X7662Y7424D01*
X7661Y7424D01*
X7661Y7424D01*
X7660Y7425D01*
X7659Y7426D01*
X7657Y7427D01*
X7656Y7428D01*
X7655Y7429D01*
X7655Y7430D01*
X7655Y7430D01*
X7655Y7431D01*
X7654Y7431D01*
X7654Y7432D01*
X7653Y7434D01*
X7652Y7435D01*
X7652Y7437D01*
Y7437D01*
X7652Y7438D01*
X7651Y7439D01*
X7651Y7440D01*
X7651Y7442D01*
X7651Y7443D01*
X7650Y7445D01*
Y7449D01*
X7651Y7450D01*
X7651Y7452D01*
X7651Y7454D01*
X7651Y7457D01*
X7652Y7459D01*
X7653Y7462D01*
Y7462D01*
X7653Y7462D01*
X7653Y7463D01*
X7654Y7464D01*
X7655Y7465D01*
X7655Y7467D01*
X7657Y7468D01*
X7658Y7469D01*
X7659Y7471D01*
X7659Y7471D01*
X7660Y7471D01*
X7661Y7472D01*
X7662Y7472D01*
X7664Y7473D01*
X7665Y7474D01*
X7667Y7474D01*
X7670Y7475D01*
X7671Y7463D01*
X7671D01*
X7671Y7463D01*
X7670Y7463D01*
X7668Y7462D01*
X7667Y7462D01*
X7666Y7461D01*
X7664Y7460D01*
X7663Y7459D01*
X7663Y7458D01*
X7663Y7458D01*
X7662Y7457D01*
X7662Y7456D01*
X7661Y7454D01*
X7661Y7453D01*
X7660Y7450D01*
X7660Y7448D01*
Y7447D01*
X7660Y7445D01*
X7660Y7444D01*
X7661Y7442D01*
X7661Y7440D01*
X7662Y7438D01*
X7663Y7436D01*
X7663Y7436D01*
X7663Y7436D01*
X7664Y7435D01*
X7665Y7435D01*
X7665Y7434D01*
X7667Y7434D01*
X7668Y7433D01*
X7669Y7433D01*
X7669D01*
X7669D01*
X7670Y7433D01*
X7670D01*
X7672Y7434D01*
X7673Y7434D01*
X7673Y7435D01*
X7673Y7435D01*
X7674Y7436D01*
X7675Y7436D01*
X7675Y7437D01*
X7676Y7438D01*
X7676Y7439D01*
Y7439D01*
X7676Y7439D01*
X7677Y7440D01*
X7677Y7441D01*
X7677Y7442D01*
X7678Y7444D01*
X7678Y7445D01*
X7679Y7446D01*
X7679Y7448D01*
X7679Y7449D01*
Y7449D01*
X7680Y7450D01*
X7680Y7450D01*
X7680Y7451D01*
X7680Y7452D01*
X7681Y7454D01*
X7681Y7456D01*
X7682Y7459D01*
X7683Y7462D01*
X7684Y7465D01*
X7684Y7466D01*
X7685Y7467D01*
X7685Y7467D01*
X7685Y7468D01*
X7686Y7468D01*
X7686Y7470D01*
X7687Y7471D01*
X7688Y7472D01*
X7690Y7473D01*
X7691Y7475D01*
X7691Y7475D01*
X7692Y7475D01*
X7693Y7475D01*
X7694Y7476D01*
X7695Y7477D01*
X7697Y7477D01*
X7699Y7477D01*
X7701Y7477D01*
X7701D01*
X7702D01*
X7703Y7477D01*
D02*
G37*
G36*
X7722Y7394D02*
X7679D01*
X7679D01*
X7679D01*
X7678D01*
X7677D01*
X7675Y7394D01*
X7673Y7394D01*
X7672Y7394D01*
X7670Y7393D01*
X7668Y7393D01*
X7668D01*
X7668Y7393D01*
X7667Y7392D01*
X7666Y7392D01*
X7665Y7391D01*
X7665Y7390D01*
X7664Y7389D01*
X7663Y7388D01*
X7663Y7388D01*
X7663Y7387D01*
X7662Y7387D01*
X7662Y7386D01*
X7661Y7384D01*
X7661Y7383D01*
X7661Y7381D01*
X7661Y7380D01*
Y7378D01*
X7661Y7377D01*
X7661Y7375D01*
X7662Y7373D01*
X7663Y7371D01*
X7664Y7369D01*
X7665Y7367D01*
X7666Y7367D01*
X7666Y7366D01*
X7667Y7366D01*
X7668Y7365D01*
X7669Y7365D01*
X7670Y7364D01*
X7671Y7364D01*
X7672Y7363D01*
X7673Y7363D01*
X7675Y7362D01*
X7677Y7362D01*
X7679Y7362D01*
X7681Y7361D01*
X7684D01*
X7722D01*
Y7350D01*
X7652D01*
Y7360D01*
X7662D01*
X7662Y7360D01*
X7661Y7361D01*
X7661Y7361D01*
X7660Y7362D01*
X7659Y7362D01*
X7658Y7363D01*
X7657Y7365D01*
X7656Y7366D01*
X7655Y7367D01*
X7654Y7369D01*
X7653Y7371D01*
X7652Y7373D01*
X7651Y7375D01*
X7651Y7377D01*
X7651Y7380D01*
X7650Y7382D01*
Y7383D01*
X7651Y7385D01*
X7651Y7386D01*
X7651Y7388D01*
X7651Y7390D01*
X7652Y7392D01*
X7653Y7394D01*
X7653Y7394D01*
X7653Y7395D01*
X7654Y7396D01*
X7654Y7397D01*
X7655Y7398D01*
X7656Y7399D01*
X7657Y7401D01*
X7659Y7402D01*
X7659Y7402D01*
X7659Y7402D01*
X7660Y7403D01*
X7661Y7403D01*
X7662Y7404D01*
X7664Y7404D01*
X7665Y7405D01*
X7667Y7405D01*
X7667D01*
X7668Y7406D01*
X7669Y7406D01*
X7670Y7406D01*
X7672D01*
X7673Y7406D01*
X7676Y7406D01*
X7679D01*
X7722D01*
Y7394D01*
D02*
G37*
G36*
X7690Y7335D02*
Y7283D01*
X7690D01*
X7690D01*
X7691Y7283D01*
X7692D01*
X7693Y7283D01*
X7694Y7284D01*
X7696Y7284D01*
X7699Y7285D01*
X7702Y7286D01*
X7705Y7288D01*
X7707Y7290D01*
X7708Y7290D01*
X7708Y7291D01*
X7709Y7292D01*
X7710Y7294D01*
X7712Y7296D01*
X7712Y7298D01*
X7713Y7301D01*
X7713Y7304D01*
Y7305D01*
X7713Y7306D01*
X7713Y7308D01*
X7713Y7310D01*
X7712Y7311D01*
X7711Y7313D01*
X7710Y7315D01*
X7710Y7315D01*
X7709Y7316D01*
X7709Y7317D01*
X7707Y7318D01*
X7706Y7319D01*
X7704Y7320D01*
X7702Y7321D01*
X7699Y7323D01*
X7701Y7335D01*
X7701D01*
X7701Y7335D01*
X7702Y7334D01*
X7702Y7334D01*
X7703Y7334D01*
X7704Y7333D01*
X7707Y7332D01*
X7709Y7331D01*
X7712Y7329D01*
X7715Y7327D01*
X7717Y7324D01*
Y7324D01*
X7718Y7324D01*
X7718Y7323D01*
X7718Y7323D01*
X7719Y7322D01*
X7719Y7321D01*
X7720Y7320D01*
X7720Y7319D01*
X7721Y7316D01*
X7722Y7312D01*
X7723Y7308D01*
X7723Y7304D01*
Y7303D01*
X7723Y7302D01*
X7723Y7300D01*
X7723Y7299D01*
X7722Y7297D01*
X7722Y7295D01*
X7721Y7292D01*
X7720Y7289D01*
X7719Y7287D01*
X7718Y7285D01*
X7717Y7283D01*
X7715Y7282D01*
X7714Y7280D01*
X7714Y7280D01*
X7713Y7279D01*
X7713Y7279D01*
X7712Y7278D01*
X7711Y7278D01*
X7710Y7277D01*
X7709Y7276D01*
X7707Y7275D01*
X7705Y7275D01*
X7703Y7274D01*
X7701Y7273D01*
X7699Y7272D01*
X7696Y7272D01*
X7693Y7271D01*
X7691Y7271D01*
X7687Y7271D01*
X7687D01*
X7687D01*
X7686D01*
X7685Y7271D01*
X7683Y7271D01*
X7681Y7271D01*
X7679Y7272D01*
X7677Y7272D01*
X7673Y7273D01*
X7671Y7274D01*
X7668Y7275D01*
X7666Y7276D01*
X7664Y7277D01*
X7662Y7278D01*
X7660Y7280D01*
X7660Y7280D01*
X7660Y7280D01*
X7659Y7281D01*
X7659Y7282D01*
X7658Y7283D01*
X7657Y7284D01*
X7656Y7285D01*
X7655Y7286D01*
X7654Y7288D01*
X7653Y7290D01*
X7653Y7292D01*
X7652Y7294D01*
X7651Y7296D01*
X7651Y7298D01*
X7651Y7301D01*
X7650Y7303D01*
Y7305D01*
X7651Y7306D01*
X7651Y7307D01*
X7651Y7308D01*
X7651Y7310D01*
X7652Y7311D01*
X7653Y7315D01*
X7654Y7317D01*
X7654Y7319D01*
X7656Y7321D01*
X7657Y7323D01*
X7658Y7324D01*
X7660Y7326D01*
X7660Y7326D01*
X7660Y7327D01*
X7661Y7327D01*
X7662Y7328D01*
X7663Y7328D01*
X7664Y7329D01*
X7665Y7330D01*
X7667Y7331D01*
X7669Y7331D01*
X7671Y7332D01*
X7673Y7333D01*
X7675Y7334D01*
X7678Y7334D01*
X7680Y7335D01*
X7683Y7335D01*
X7687Y7335D01*
X7687D01*
X7687D01*
X7688D01*
X7690Y7335D01*
D02*
G37*
G36*
X7697Y7259D02*
X7699Y7259D01*
X7701Y7258D01*
X7704Y7257D01*
X7706Y7256D01*
X7709Y7255D01*
X7709D01*
X7709Y7255D01*
X7710Y7254D01*
X7711Y7253D01*
X7713Y7251D01*
X7714Y7250D01*
X7716Y7247D01*
X7718Y7245D01*
X7719Y7242D01*
Y7242D01*
X7720Y7242D01*
X7720Y7241D01*
X7720Y7241D01*
X7720Y7240D01*
X7721Y7239D01*
X7721Y7237D01*
X7722Y7234D01*
X7723Y7231D01*
X7723Y7227D01*
X7723Y7224D01*
Y7221D01*
X7723Y7220D01*
Y7219D01*
X7723Y7218D01*
X7723Y7216D01*
X7722Y7213D01*
X7722Y7209D01*
X7721Y7205D01*
X7719Y7202D01*
Y7202D01*
X7719Y7201D01*
X7719Y7201D01*
X7719Y7200D01*
X7718Y7199D01*
X7717Y7197D01*
X7715Y7194D01*
X7713Y7192D01*
X7711Y7190D01*
X7708Y7188D01*
X7708D01*
X7708Y7188D01*
X7707Y7187D01*
X7707Y7187D01*
X7706Y7187D01*
X7705Y7186D01*
X7703Y7185D01*
X7700Y7184D01*
X7697Y7184D01*
X7694Y7183D01*
X7691Y7183D01*
X7690Y7195D01*
X7690D01*
X7690D01*
X7691Y7195D01*
X7692Y7195D01*
X7694Y7195D01*
X7696Y7196D01*
X7698Y7197D01*
X7700Y7198D01*
X7702Y7199D01*
X7702Y7199D01*
X7702Y7199D01*
X7703Y7200D01*
X7704Y7201D01*
X7705Y7202D01*
X7707Y7204D01*
X7708Y7206D01*
X7709Y7208D01*
Y7208D01*
X7709Y7209D01*
X7709Y7209D01*
X7710Y7211D01*
X7710Y7213D01*
X7711Y7215D01*
X7711Y7217D01*
X7712Y7220D01*
X7712Y7223D01*
Y7224D01*
X7712Y7226D01*
X7712Y7227D01*
X7711Y7229D01*
X7711Y7231D01*
X7710Y7234D01*
X7710Y7236D01*
X7710Y7236D01*
X7709Y7237D01*
X7709Y7238D01*
X7708Y7239D01*
X7707Y7240D01*
X7706Y7242D01*
X7705Y7243D01*
X7704Y7244D01*
X7704Y7244D01*
X7703Y7244D01*
X7702Y7245D01*
X7701Y7245D01*
X7700Y7246D01*
X7699Y7246D01*
X7697Y7247D01*
X7696Y7247D01*
X7695D01*
X7695D01*
X7694Y7247D01*
X7693Y7247D01*
X7692Y7246D01*
X7690Y7246D01*
X7689Y7245D01*
X7688Y7244D01*
X7688Y7244D01*
X7687Y7244D01*
X7687Y7243D01*
X7686Y7242D01*
X7685Y7241D01*
X7684Y7240D01*
X7683Y7238D01*
X7682Y7236D01*
X7682Y7235D01*
X7682Y7235D01*
X7681Y7234D01*
X7681Y7233D01*
X7681Y7232D01*
X7681Y7231D01*
X7680Y7230D01*
X7680Y7228D01*
X7679Y7227D01*
X7679Y7225D01*
X7678Y7223D01*
X7678Y7221D01*
X7677Y7218D01*
Y7218D01*
X7677Y7218D01*
X7677Y7217D01*
X7677Y7216D01*
X7676Y7215D01*
X7676Y7214D01*
X7675Y7211D01*
X7674Y7208D01*
X7673Y7205D01*
X7672Y7202D01*
X7672Y7201D01*
X7671Y7200D01*
Y7200D01*
X7671Y7200D01*
X7671Y7199D01*
X7670Y7198D01*
X7669Y7196D01*
X7668Y7194D01*
X7666Y7193D01*
X7664Y7191D01*
X7663Y7190D01*
X7662Y7189D01*
X7662Y7189D01*
X7660Y7189D01*
X7659Y7188D01*
X7657Y7187D01*
X7655Y7187D01*
X7653Y7186D01*
X7650Y7186D01*
X7650D01*
X7650D01*
X7650D01*
X7649D01*
X7648Y7187D01*
X7646Y7187D01*
X7644Y7187D01*
X7642Y7188D01*
X7639Y7189D01*
X7637Y7190D01*
X7637D01*
X7637Y7190D01*
X7636Y7191D01*
X7635Y7192D01*
X7633Y7193D01*
X7632Y7195D01*
X7630Y7197D01*
X7628Y7200D01*
X7627Y7202D01*
Y7203D01*
X7627Y7203D01*
X7627Y7203D01*
X7627Y7204D01*
X7626Y7205D01*
X7626Y7205D01*
X7625Y7208D01*
X7625Y7210D01*
X7624Y7213D01*
X7624Y7217D01*
X7624Y7220D01*
Y7222D01*
X7624Y7223D01*
Y7224D01*
X7624Y7226D01*
X7625Y7229D01*
X7625Y7232D01*
X7626Y7236D01*
X7627Y7239D01*
Y7239D01*
X7628Y7239D01*
X7628Y7240D01*
X7628Y7240D01*
X7629Y7242D01*
X7630Y7244D01*
X7631Y7246D01*
X7633Y7248D01*
X7635Y7250D01*
X7638Y7251D01*
X7638Y7252D01*
X7639Y7252D01*
X7640Y7253D01*
X7642Y7254D01*
X7644Y7255D01*
X7647Y7255D01*
X7650Y7256D01*
X7653Y7256D01*
X7653Y7244D01*
X7653D01*
X7653D01*
X7653Y7244D01*
X7652Y7244D01*
X7650Y7244D01*
X7648Y7243D01*
X7646Y7242D01*
X7644Y7241D01*
X7642Y7239D01*
X7640Y7237D01*
X7640Y7237D01*
X7639Y7236D01*
X7638Y7235D01*
X7637Y7233D01*
X7637Y7231D01*
X7636Y7228D01*
X7635Y7224D01*
X7635Y7221D01*
Y7219D01*
X7635Y7218D01*
X7635Y7217D01*
X7636Y7214D01*
X7636Y7211D01*
X7637Y7209D01*
X7638Y7206D01*
X7639Y7205D01*
X7639Y7204D01*
X7640Y7204D01*
X7640Y7203D01*
X7641Y7202D01*
X7642Y7201D01*
X7644Y7200D01*
X7646Y7199D01*
X7648Y7199D01*
X7650Y7199D01*
X7650D01*
X7651D01*
X7652Y7199D01*
X7653Y7199D01*
X7654Y7199D01*
X7655Y7200D01*
X7657Y7201D01*
X7658Y7202D01*
X7658Y7202D01*
X7659Y7203D01*
X7659Y7204D01*
X7659Y7204D01*
X7660Y7205D01*
X7660Y7206D01*
X7661Y7207D01*
X7661Y7209D01*
X7662Y7210D01*
X7663Y7212D01*
X7663Y7214D01*
X7664Y7216D01*
X7664Y7219D01*
X7665Y7221D01*
Y7222D01*
X7665Y7222D01*
X7665Y7223D01*
X7666Y7224D01*
X7666Y7225D01*
X7666Y7227D01*
X7667Y7230D01*
X7668Y7233D01*
X7669Y7237D01*
X7669Y7239D01*
X7670Y7240D01*
X7671Y7242D01*
X7671Y7243D01*
Y7243D01*
X7671Y7243D01*
X7671Y7244D01*
X7672Y7244D01*
X7673Y7246D01*
X7674Y7247D01*
X7675Y7249D01*
X7677Y7252D01*
X7679Y7253D01*
X7681Y7255D01*
X7681Y7255D01*
X7682Y7256D01*
X7683Y7256D01*
X7685Y7257D01*
X7687Y7258D01*
X7689Y7259D01*
X7692Y7259D01*
X7694Y7259D01*
X7695D01*
X7695D01*
X7695D01*
X7696D01*
X7697Y7259D01*
D02*
G37*
G36*
X7693Y7136D02*
X7681D01*
Y7172D01*
X7693D01*
Y7136D01*
D02*
G37*
G36*
X7703Y7127D02*
X7705Y7126D01*
X7706Y7126D01*
X7708Y7125D01*
X7710Y7124D01*
X7712Y7123D01*
X7713Y7123D01*
X7713Y7123D01*
X7714Y7122D01*
X7715Y7121D01*
X7717Y7119D01*
X7718Y7118D01*
X7719Y7116D01*
X7720Y7113D01*
X7721Y7113D01*
X7721Y7112D01*
X7721Y7111D01*
X7722Y7109D01*
X7722Y7107D01*
X7723Y7104D01*
X7723Y7102D01*
X7723Y7099D01*
Y7097D01*
X7723Y7096D01*
Y7095D01*
X7723Y7094D01*
X7722Y7091D01*
X7722Y7088D01*
X7721Y7084D01*
X7719Y7081D01*
X7719Y7079D01*
X7718Y7078D01*
Y7078D01*
X7717Y7078D01*
X7716Y7077D01*
X7715Y7076D01*
X7713Y7074D01*
X7711Y7073D01*
X7708Y7071D01*
X7705Y7070D01*
X7701Y7069D01*
X7699Y7081D01*
X7699D01*
X7699D01*
X7700Y7081D01*
X7701Y7081D01*
X7703Y7082D01*
X7705Y7082D01*
X7706Y7083D01*
X7708Y7085D01*
X7710Y7086D01*
X7710Y7086D01*
X7710Y7087D01*
X7711Y7088D01*
X7712Y7089D01*
X7712Y7091D01*
X7713Y7093D01*
X7713Y7096D01*
X7713Y7099D01*
Y7100D01*
X7713Y7101D01*
X7713Y7103D01*
X7713Y7105D01*
X7712Y7107D01*
X7711Y7109D01*
X7710Y7111D01*
X7710Y7111D01*
X7710Y7111D01*
X7709Y7112D01*
X7708Y7113D01*
X7707Y7113D01*
X7705Y7114D01*
X7704Y7115D01*
X7702Y7115D01*
X7702D01*
X7702D01*
X7701Y7115D01*
X7700Y7114D01*
X7699Y7114D01*
X7698Y7113D01*
X7697Y7112D01*
X7696Y7111D01*
X7696Y7111D01*
X7696Y7111D01*
X7696Y7110D01*
X7695Y7109D01*
X7694Y7107D01*
X7694Y7105D01*
X7693Y7104D01*
X7693Y7102D01*
X7693Y7101D01*
X7692Y7099D01*
Y7099D01*
X7692Y7099D01*
X7692Y7098D01*
X7692Y7097D01*
X7691Y7096D01*
X7691Y7095D01*
X7690Y7092D01*
X7689Y7089D01*
X7688Y7086D01*
X7687Y7083D01*
X7687Y7082D01*
X7686Y7081D01*
X7686Y7081D01*
X7686Y7080D01*
X7685Y7079D01*
X7685Y7078D01*
X7684Y7077D01*
X7683Y7076D01*
X7681Y7075D01*
X7680Y7074D01*
X7680Y7073D01*
X7679Y7073D01*
X7678Y7073D01*
X7677Y7072D01*
X7676Y7072D01*
X7674Y7071D01*
X7672Y7071D01*
X7670Y7071D01*
X7670D01*
X7670D01*
X7669Y7071D01*
X7668Y7071D01*
X7666Y7071D01*
X7665Y7072D01*
X7663Y7072D01*
X7662Y7073D01*
X7662Y7073D01*
X7661Y7073D01*
X7661Y7074D01*
X7660Y7075D01*
X7659Y7075D01*
X7657Y7076D01*
X7656Y7078D01*
X7655Y7079D01*
X7655Y7079D01*
X7655Y7079D01*
X7655Y7080D01*
X7654Y7081D01*
X7654Y7082D01*
X7653Y7083D01*
X7652Y7085D01*
X7652Y7086D01*
Y7087D01*
X7652Y7087D01*
X7651Y7088D01*
X7651Y7089D01*
X7651Y7091D01*
X7651Y7093D01*
X7650Y7095D01*
Y7098D01*
X7651Y7100D01*
X7651Y7101D01*
X7651Y7104D01*
X7651Y7106D01*
X7652Y7109D01*
X7653Y7111D01*
Y7111D01*
X7653Y7111D01*
X7653Y7112D01*
X7654Y7113D01*
X7655Y7114D01*
X7655Y7116D01*
X7657Y7117D01*
X7658Y7119D01*
X7659Y7120D01*
X7659Y7120D01*
X7660Y7121D01*
X7661Y7121D01*
X7662Y7122D01*
X7664Y7122D01*
X7665Y7123D01*
X7667Y7124D01*
X7670Y7124D01*
X7671Y7113D01*
X7671D01*
X7671Y7113D01*
X7670Y7112D01*
X7668Y7112D01*
X7667Y7111D01*
X7666Y7110D01*
X7664Y7109D01*
X7663Y7108D01*
X7663Y7108D01*
X7663Y7107D01*
X7662Y7106D01*
X7662Y7105D01*
X7661Y7104D01*
X7661Y7102D01*
X7660Y7100D01*
X7660Y7097D01*
Y7096D01*
X7660Y7095D01*
X7660Y7093D01*
X7661Y7091D01*
X7661Y7089D01*
X7662Y7087D01*
X7663Y7086D01*
X7663Y7086D01*
X7663Y7085D01*
X7664Y7085D01*
X7665Y7084D01*
X7665Y7084D01*
X7667Y7083D01*
X7668Y7083D01*
X7669Y7082D01*
X7669D01*
X7669D01*
X7670Y7083D01*
X7670D01*
X7672Y7083D01*
X7673Y7084D01*
X7673Y7084D01*
X7673Y7084D01*
X7674Y7085D01*
X7675Y7086D01*
X7675Y7086D01*
X7676Y7087D01*
X7676Y7088D01*
Y7088D01*
X7676Y7089D01*
X7677Y7089D01*
X7677Y7090D01*
X7677Y7092D01*
X7678Y7093D01*
X7678Y7095D01*
X7679Y7096D01*
X7679Y7097D01*
X7679Y7099D01*
Y7099D01*
X7680Y7099D01*
X7680Y7100D01*
X7680Y7101D01*
X7680Y7102D01*
X7681Y7103D01*
X7681Y7106D01*
X7682Y7108D01*
X7683Y7111D01*
X7684Y7114D01*
X7684Y7115D01*
X7685Y7116D01*
X7685Y7116D01*
X7685Y7117D01*
X7686Y7118D01*
X7686Y7119D01*
X7687Y7120D01*
X7688Y7122D01*
X7690Y7123D01*
X7691Y7124D01*
X7691Y7124D01*
X7692Y7124D01*
X7693Y7125D01*
X7694Y7125D01*
X7695Y7126D01*
X7697Y7126D01*
X7699Y7127D01*
X7701Y7127D01*
X7701D01*
X7702D01*
X7703Y7127D01*
D02*
G37*
G36*
X7722Y7044D02*
X7679D01*
X7679D01*
X7679D01*
X7678D01*
X7677D01*
X7675Y7044D01*
X7673Y7043D01*
X7672Y7043D01*
X7670Y7043D01*
X7668Y7042D01*
X7668D01*
X7668Y7042D01*
X7667Y7042D01*
X7666Y7041D01*
X7665Y7040D01*
X7665Y7040D01*
X7664Y7039D01*
X7663Y7037D01*
X7663Y7037D01*
X7663Y7037D01*
X7662Y7036D01*
X7662Y7035D01*
X7661Y7034D01*
X7661Y7032D01*
X7661Y7031D01*
X7661Y7029D01*
Y7028D01*
X7661Y7027D01*
X7661Y7025D01*
X7662Y7023D01*
X7663Y7021D01*
X7664Y7018D01*
X7665Y7016D01*
X7666Y7016D01*
X7666Y7015D01*
X7667Y7015D01*
X7668Y7015D01*
X7669Y7014D01*
X7670Y7014D01*
X7671Y7013D01*
X7672Y7013D01*
X7673Y7012D01*
X7675Y7012D01*
X7677Y7011D01*
X7679Y7011D01*
X7681Y7011D01*
X7684D01*
X7722D01*
Y6999D01*
X7652D01*
Y7010D01*
X7662D01*
X7662Y7010D01*
X7661Y7010D01*
X7661Y7011D01*
X7660Y7011D01*
X7659Y7012D01*
X7658Y7013D01*
X7657Y7014D01*
X7656Y7015D01*
X7655Y7017D01*
X7654Y7018D01*
X7653Y7020D01*
X7652Y7022D01*
X7651Y7024D01*
X7651Y7027D01*
X7651Y7029D01*
X7650Y7032D01*
Y7033D01*
X7651Y7034D01*
X7651Y7036D01*
X7651Y7037D01*
X7651Y7039D01*
X7652Y7041D01*
X7653Y7043D01*
X7653Y7044D01*
X7653Y7044D01*
X7654Y7045D01*
X7654Y7046D01*
X7655Y7048D01*
X7656Y7049D01*
X7657Y7050D01*
X7659Y7051D01*
X7659Y7051D01*
X7659Y7052D01*
X7660Y7052D01*
X7661Y7053D01*
X7662Y7053D01*
X7664Y7054D01*
X7665Y7054D01*
X7667Y7055D01*
X7667D01*
X7668Y7055D01*
X7669Y7055D01*
X7670Y7055D01*
X7672D01*
X7673Y7055D01*
X7676Y7056D01*
X7679D01*
X7722D01*
Y7044D01*
D02*
G37*
G36*
X7690Y6984D02*
Y6933D01*
X7690D01*
X7690D01*
X7691Y6933D01*
X7692D01*
X7693Y6933D01*
X7694Y6933D01*
X7696Y6934D01*
X7699Y6934D01*
X7702Y6936D01*
X7705Y6937D01*
X7707Y6939D01*
X7708Y6939D01*
X7708Y6940D01*
X7709Y6941D01*
X7710Y6943D01*
X7712Y6945D01*
X7712Y6947D01*
X7713Y6950D01*
X7713Y6953D01*
Y6955D01*
X7713Y6956D01*
X7713Y6957D01*
X7713Y6959D01*
X7712Y6961D01*
X7711Y6963D01*
X7710Y6965D01*
X7710Y6965D01*
X7709Y6965D01*
X7709Y6966D01*
X7707Y6967D01*
X7706Y6968D01*
X7704Y6970D01*
X7702Y6971D01*
X7699Y6972D01*
X7701Y6984D01*
X7701D01*
X7701Y6984D01*
X7702Y6984D01*
X7702Y6984D01*
X7703Y6983D01*
X7704Y6983D01*
X7707Y6982D01*
X7709Y6980D01*
X7712Y6978D01*
X7715Y6976D01*
X7717Y6973D01*
Y6973D01*
X7718Y6973D01*
X7718Y6973D01*
X7718Y6972D01*
X7719Y6971D01*
X7719Y6970D01*
X7720Y6969D01*
X7720Y6968D01*
X7721Y6965D01*
X7722Y6962D01*
X7723Y6958D01*
X7723Y6953D01*
Y6952D01*
X7723Y6951D01*
X7723Y6950D01*
X7723Y6948D01*
X7722Y6946D01*
X7722Y6945D01*
X7721Y6941D01*
X7720Y6939D01*
X7719Y6937D01*
X7718Y6935D01*
X7717Y6933D01*
X7715Y6931D01*
X7714Y6929D01*
X7714Y6929D01*
X7713Y6929D01*
X7713Y6928D01*
X7712Y6928D01*
X7711Y6927D01*
X7710Y6926D01*
X7709Y6926D01*
X7707Y6925D01*
X7705Y6924D01*
X7703Y6923D01*
X7701Y6922D01*
X7699Y6922D01*
X7696Y6921D01*
X7693Y6921D01*
X7691Y6921D01*
X7687Y6920D01*
X7687D01*
X7687D01*
X7686D01*
X7685Y6921D01*
X7683Y6921D01*
X7681Y6921D01*
X7679Y6921D01*
X7677Y6922D01*
X7673Y6923D01*
X7671Y6923D01*
X7668Y6924D01*
X7666Y6925D01*
X7664Y6926D01*
X7662Y6928D01*
X7660Y6929D01*
X7660Y6930D01*
X7660Y6930D01*
X7659Y6930D01*
X7659Y6931D01*
X7658Y6932D01*
X7657Y6933D01*
X7656Y6934D01*
X7655Y6936D01*
X7654Y6937D01*
X7653Y6939D01*
X7653Y6941D01*
X7652Y6943D01*
X7651Y6945D01*
X7651Y6948D01*
X7651Y6950D01*
X7650Y6953D01*
Y6954D01*
X7651Y6955D01*
X7651Y6956D01*
X7651Y6958D01*
X7651Y6959D01*
X7652Y6961D01*
X7653Y6964D01*
X7654Y6966D01*
X7654Y6968D01*
X7656Y6970D01*
X7657Y6972D01*
X7658Y6974D01*
X7660Y6976D01*
X7660Y6976D01*
X7660Y6976D01*
X7661Y6976D01*
X7662Y6977D01*
X7663Y6978D01*
X7664Y6978D01*
X7665Y6979D01*
X7667Y6980D01*
X7669Y6981D01*
X7671Y6982D01*
X7673Y6982D01*
X7675Y6983D01*
X7678Y6984D01*
X7680Y6984D01*
X7683Y6984D01*
X7687Y6985D01*
X7687D01*
X7687D01*
X7688D01*
X7690Y6984D01*
D02*
G37*
G36*
X7697Y6908D02*
X7699Y6908D01*
X7701Y6907D01*
X7704Y6907D01*
X7706Y6906D01*
X7709Y6904D01*
X7709D01*
X7709Y6904D01*
X7710Y6903D01*
X7711Y6902D01*
X7713Y6901D01*
X7714Y6899D01*
X7716Y6897D01*
X7718Y6894D01*
X7719Y6891D01*
Y6891D01*
X7720Y6891D01*
X7720Y6891D01*
X7720Y6890D01*
X7720Y6889D01*
X7721Y6888D01*
X7721Y6886D01*
X7722Y6883D01*
X7723Y6880D01*
X7723Y6877D01*
X7723Y6873D01*
Y6871D01*
X7723Y6870D01*
Y6868D01*
X7723Y6867D01*
X7723Y6865D01*
X7722Y6862D01*
X7722Y6858D01*
X7721Y6855D01*
X7719Y6851D01*
Y6851D01*
X7719Y6851D01*
X7719Y6850D01*
X7719Y6850D01*
X7718Y6848D01*
X7717Y6846D01*
X7715Y6844D01*
X7713Y6842D01*
X7711Y6839D01*
X7708Y6837D01*
X7708D01*
X7708Y6837D01*
X7707Y6837D01*
X7707Y6837D01*
X7706Y6836D01*
X7705Y6836D01*
X7703Y6835D01*
X7700Y6834D01*
X7697Y6833D01*
X7694Y6832D01*
X7691Y6832D01*
X7690Y6844D01*
X7690D01*
X7690D01*
X7691Y6844D01*
X7692Y6845D01*
X7694Y6845D01*
X7696Y6845D01*
X7698Y6846D01*
X7700Y6847D01*
X7702Y6848D01*
X7702Y6848D01*
X7702Y6849D01*
X7703Y6849D01*
X7704Y6850D01*
X7705Y6852D01*
X7707Y6853D01*
X7708Y6855D01*
X7709Y6858D01*
Y6858D01*
X7709Y6858D01*
X7709Y6859D01*
X7710Y6860D01*
X7710Y6862D01*
X7711Y6864D01*
X7711Y6867D01*
X7712Y6869D01*
X7712Y6872D01*
Y6874D01*
X7712Y6875D01*
X7712Y6877D01*
X7711Y6879D01*
X7711Y6881D01*
X7710Y6883D01*
X7710Y6885D01*
X7710Y6885D01*
X7709Y6886D01*
X7709Y6887D01*
X7708Y6888D01*
X7707Y6890D01*
X7706Y6891D01*
X7705Y6892D01*
X7704Y6893D01*
X7704Y6894D01*
X7703Y6894D01*
X7702Y6894D01*
X7701Y6895D01*
X7700Y6895D01*
X7699Y6896D01*
X7697Y6896D01*
X7696Y6896D01*
X7695D01*
X7695D01*
X7694Y6896D01*
X7693Y6896D01*
X7692Y6896D01*
X7690Y6895D01*
X7689Y6895D01*
X7688Y6894D01*
X7688Y6894D01*
X7687Y6893D01*
X7687Y6893D01*
X7686Y6892D01*
X7685Y6890D01*
X7684Y6889D01*
X7683Y6887D01*
X7682Y6885D01*
X7682Y6885D01*
X7682Y6884D01*
X7681Y6883D01*
X7681Y6882D01*
X7681Y6881D01*
X7681Y6880D01*
X7680Y6879D01*
X7680Y6878D01*
X7679Y6876D01*
X7679Y6874D01*
X7678Y6872D01*
X7678Y6870D01*
X7677Y6868D01*
Y6868D01*
X7677Y6867D01*
X7677Y6867D01*
X7677Y6866D01*
X7676Y6865D01*
X7676Y6863D01*
X7675Y6861D01*
X7674Y6857D01*
X7673Y6854D01*
X7672Y6852D01*
X7672Y6850D01*
X7671Y6849D01*
Y6849D01*
X7671Y6849D01*
X7671Y6848D01*
X7670Y6847D01*
X7669Y6845D01*
X7668Y6844D01*
X7666Y6842D01*
X7664Y6840D01*
X7663Y6839D01*
X7662Y6839D01*
X7662Y6838D01*
X7660Y6838D01*
X7659Y6837D01*
X7657Y6837D01*
X7655Y6836D01*
X7653Y6836D01*
X7650Y6836D01*
X7650D01*
X7650D01*
X7650D01*
X7649D01*
X7648Y6836D01*
X7646Y6836D01*
X7644Y6837D01*
X7642Y6837D01*
X7639Y6838D01*
X7637Y6840D01*
X7637D01*
X7637Y6840D01*
X7636Y6840D01*
X7635Y6841D01*
X7633Y6843D01*
X7632Y6845D01*
X7630Y6847D01*
X7628Y6849D01*
X7627Y6852D01*
Y6852D01*
X7627Y6852D01*
X7627Y6853D01*
X7627Y6853D01*
X7626Y6854D01*
X7626Y6855D01*
X7625Y6857D01*
X7625Y6860D01*
X7624Y6863D01*
X7624Y6866D01*
X7624Y6869D01*
Y6871D01*
X7624Y6872D01*
Y6873D01*
X7624Y6876D01*
X7625Y6879D01*
X7625Y6882D01*
X7626Y6885D01*
X7627Y6888D01*
Y6888D01*
X7628Y6889D01*
X7628Y6889D01*
X7628Y6890D01*
X7629Y6891D01*
X7630Y6893D01*
X7631Y6895D01*
X7633Y6897D01*
X7635Y6899D01*
X7638Y6901D01*
X7638Y6901D01*
X7639Y6902D01*
X7640Y6902D01*
X7642Y6903D01*
X7644Y6904D01*
X7647Y6905D01*
X7650Y6905D01*
X7653Y6906D01*
X7653Y6894D01*
X7653D01*
X7653D01*
X7653Y6893D01*
X7652Y6893D01*
X7650Y6893D01*
X7648Y6892D01*
X7646Y6891D01*
X7644Y6890D01*
X7642Y6889D01*
X7640Y6887D01*
X7640Y6887D01*
X7639Y6886D01*
X7638Y6884D01*
X7637Y6883D01*
X7637Y6880D01*
X7636Y6877D01*
X7635Y6874D01*
X7635Y6870D01*
Y6868D01*
X7635Y6867D01*
X7635Y6866D01*
X7636Y6864D01*
X7636Y6861D01*
X7637Y6858D01*
X7638Y6856D01*
X7639Y6854D01*
X7639Y6853D01*
X7640Y6853D01*
X7640Y6852D01*
X7641Y6852D01*
X7642Y6851D01*
X7644Y6850D01*
X7646Y6849D01*
X7648Y6848D01*
X7650Y6848D01*
X7650D01*
X7651D01*
X7652Y6848D01*
X7653Y6848D01*
X7654Y6849D01*
X7655Y6850D01*
X7657Y6850D01*
X7658Y6852D01*
X7658Y6852D01*
X7659Y6853D01*
X7659Y6853D01*
X7659Y6854D01*
X7660Y6854D01*
X7660Y6855D01*
X7661Y6857D01*
X7661Y6858D01*
X7662Y6860D01*
X7663Y6861D01*
X7663Y6863D01*
X7664Y6866D01*
X7664Y6868D01*
X7665Y6871D01*
Y6871D01*
X7665Y6872D01*
X7665Y6872D01*
X7666Y6873D01*
X7666Y6875D01*
X7666Y6876D01*
X7667Y6879D01*
X7668Y6883D01*
X7669Y6886D01*
X7669Y6888D01*
X7670Y6890D01*
X7671Y6891D01*
X7671Y6892D01*
Y6892D01*
X7671Y6893D01*
X7671Y6893D01*
X7672Y6894D01*
X7673Y6895D01*
X7674Y6897D01*
X7675Y6899D01*
X7677Y6901D01*
X7679Y6903D01*
X7681Y6905D01*
X7681Y6905D01*
X7682Y6905D01*
X7683Y6906D01*
X7685Y6907D01*
X7687Y6907D01*
X7689Y6908D01*
X7692Y6908D01*
X7694Y6909D01*
X7695D01*
X7695D01*
X7695D01*
X7696D01*
X7697Y6908D01*
D02*
G37*
G36*
X7722Y6808D02*
X7721Y6808D01*
X7721Y6808D01*
X7720Y6807D01*
X7719Y6807D01*
X7718Y6807D01*
X7716Y6806D01*
X7715Y6806D01*
X7713Y6806D01*
X7713Y6805D01*
X7714Y6805D01*
X7715Y6803D01*
X7716Y6802D01*
X7717Y6800D01*
X7719Y6798D01*
X7720Y6795D01*
X7721Y6793D01*
X7721Y6793D01*
X7721Y6792D01*
X7722Y6791D01*
X7722Y6789D01*
X7722Y6787D01*
X7723Y6785D01*
X7723Y6783D01*
X7723Y6780D01*
Y6779D01*
X7723Y6778D01*
Y6777D01*
X7723Y6776D01*
X7722Y6773D01*
X7722Y6771D01*
X7721Y6768D01*
X7719Y6765D01*
X7718Y6762D01*
X7717Y6762D01*
X7717Y6761D01*
X7715Y6760D01*
X7714Y6759D01*
X7712Y6758D01*
X7709Y6757D01*
X7706Y6756D01*
X7705Y6756D01*
X7703Y6756D01*
X7703D01*
X7702D01*
X7701Y6756D01*
X7700Y6756D01*
X7699Y6757D01*
X7697Y6757D01*
X7695Y6758D01*
X7694Y6758D01*
X7694Y6759D01*
X7693Y6759D01*
X7692Y6759D01*
X7691Y6760D01*
X7690Y6761D01*
X7689Y6762D01*
X7688Y6763D01*
X7687Y6764D01*
X7687Y6765D01*
X7687Y6765D01*
X7686Y6766D01*
X7686Y6767D01*
X7685Y6768D01*
X7684Y6770D01*
X7684Y6771D01*
X7683Y6773D01*
Y6773D01*
X7683Y6774D01*
X7683Y6775D01*
X7683Y6776D01*
X7682Y6777D01*
X7682Y6779D01*
X7682Y6781D01*
X7681Y6784D01*
Y6784D01*
X7681Y6784D01*
Y6785D01*
X7681Y6786D01*
X7681Y6787D01*
X7681Y6788D01*
X7681Y6790D01*
X7680Y6792D01*
X7680Y6795D01*
X7679Y6799D01*
X7678Y6802D01*
X7678Y6803D01*
X7677Y6805D01*
X7677D01*
X7677D01*
X7676Y6805D01*
X7675D01*
X7675D01*
X7674D01*
X7674D01*
X7674D01*
X7673D01*
X7672Y6805D01*
X7670Y6804D01*
X7669Y6804D01*
X7667Y6803D01*
X7665Y6803D01*
X7664Y6801D01*
X7664Y6801D01*
X7664Y6801D01*
X7663Y6800D01*
X7662Y6798D01*
X7661Y6796D01*
X7661Y6794D01*
X7660Y6791D01*
X7660Y6788D01*
Y6787D01*
X7660Y6785D01*
X7661Y6783D01*
X7661Y6781D01*
X7661Y6779D01*
X7662Y6777D01*
X7663Y6776D01*
X7663Y6775D01*
X7664Y6775D01*
X7664Y6774D01*
X7665Y6773D01*
X7667Y6772D01*
X7669Y6771D01*
X7671Y6771D01*
X7673Y6770D01*
X7672Y6758D01*
X7672D01*
X7671Y6758D01*
X7670Y6758D01*
X7669Y6759D01*
X7667Y6759D01*
X7666Y6760D01*
X7664Y6761D01*
X7662Y6762D01*
X7660Y6763D01*
X7660Y6763D01*
X7659Y6764D01*
X7658Y6765D01*
X7657Y6766D01*
X7656Y6767D01*
X7655Y6769D01*
X7654Y6771D01*
X7653Y6774D01*
Y6774D01*
X7653Y6774D01*
X7653Y6774D01*
X7653Y6775D01*
X7652Y6776D01*
X7652Y6778D01*
X7651Y6781D01*
X7651Y6783D01*
X7651Y6786D01*
X7650Y6790D01*
Y6791D01*
X7651Y6793D01*
X7651Y6795D01*
X7651Y6797D01*
X7651Y6800D01*
X7652Y6802D01*
X7653Y6804D01*
X7653Y6804D01*
X7653Y6805D01*
X7653Y6806D01*
X7654Y6807D01*
X7655Y6809D01*
X7656Y6810D01*
X7657Y6811D01*
X7658Y6812D01*
X7658Y6812D01*
X7658Y6813D01*
X7659Y6813D01*
X7660Y6814D01*
X7661Y6814D01*
X7663Y6815D01*
X7664Y6816D01*
X7666Y6816D01*
X7666D01*
X7666Y6816D01*
X7667Y6816D01*
X7668Y6816D01*
X7670D01*
X7672Y6817D01*
X7674Y6817D01*
X7677D01*
X7692D01*
X7693D01*
X7693D01*
X7694D01*
X7695D01*
X7696D01*
X7698D01*
X7701Y6817D01*
X7705D01*
X7708Y6817D01*
X7710Y6817D01*
X7711D01*
X7712Y6817D01*
X7713Y6817D01*
X7713D01*
X7714Y6818D01*
X7715Y6818D01*
X7716Y6818D01*
X7717Y6818D01*
X7719Y6819D01*
X7722Y6820D01*
Y6808D01*
D02*
G37*
G36*
Y6731D02*
X7678D01*
X7678D01*
X7677D01*
X7677D01*
X7675D01*
X7674Y6731D01*
X7672Y6731D01*
X7670Y6731D01*
X7669Y6730D01*
X7668Y6730D01*
X7667D01*
X7667Y6730D01*
X7666Y6729D01*
X7666Y6729D01*
X7665Y6728D01*
X7664Y6728D01*
X7663Y6727D01*
X7663Y6726D01*
X7663Y6726D01*
X7662Y6725D01*
X7662Y6725D01*
X7662Y6724D01*
X7661Y6723D01*
X7661Y6722D01*
X7661Y6720D01*
X7661Y6719D01*
Y6718D01*
X7661Y6718D01*
X7661Y6716D01*
X7661Y6714D01*
X7662Y6713D01*
X7663Y6710D01*
X7664Y6708D01*
X7666Y6706D01*
X7666Y6706D01*
X7666Y6706D01*
X7668Y6705D01*
X7669Y6704D01*
X7672Y6703D01*
X7674Y6702D01*
X7677Y6702D01*
X7681Y6702D01*
X7722D01*
Y6690D01*
X7676D01*
X7676D01*
X7676D01*
X7676D01*
X7675D01*
X7674Y6690D01*
X7672Y6689D01*
X7670Y6689D01*
X7668Y6689D01*
X7666Y6688D01*
X7665Y6687D01*
X7665Y6687D01*
X7664Y6686D01*
X7663Y6686D01*
X7663Y6685D01*
X7662Y6683D01*
X7661Y6682D01*
X7661Y6680D01*
X7661Y6677D01*
Y6677D01*
X7661Y6676D01*
X7661Y6674D01*
X7661Y6673D01*
X7662Y6671D01*
X7663Y6670D01*
X7663Y6668D01*
X7664Y6668D01*
X7664Y6667D01*
X7665Y6667D01*
X7665Y6666D01*
X7666Y6665D01*
X7668Y6664D01*
X7669Y6663D01*
X7671Y6662D01*
X7671Y6662D01*
X7672Y6662D01*
X7673Y6661D01*
X7675Y6661D01*
X7677Y6661D01*
X7679Y6660D01*
X7682Y6660D01*
X7686Y6660D01*
X7722D01*
Y6648D01*
X7652D01*
Y6659D01*
X7662D01*
X7662Y6659D01*
X7661Y6659D01*
X7660Y6660D01*
X7659Y6661D01*
X7658Y6662D01*
X7656Y6664D01*
X7655Y6666D01*
X7654Y6668D01*
X7653Y6668D01*
X7653Y6669D01*
X7653Y6670D01*
X7652Y6671D01*
X7651Y6673D01*
X7651Y6675D01*
X7651Y6678D01*
X7650Y6680D01*
Y6681D01*
X7651Y6683D01*
X7651Y6685D01*
X7651Y6687D01*
X7652Y6689D01*
X7653Y6691D01*
X7654Y6693D01*
X7654Y6693D01*
X7654Y6694D01*
X7655Y6694D01*
X7656Y6695D01*
X7657Y6697D01*
X7659Y6698D01*
X7661Y6699D01*
X7663Y6700D01*
X7663Y6700D01*
X7662Y6700D01*
X7662Y6701D01*
X7661Y6701D01*
X7660Y6702D01*
X7659Y6703D01*
X7658Y6704D01*
X7657Y6706D01*
X7655Y6707D01*
X7654Y6709D01*
X7653Y6711D01*
X7652Y6712D01*
X7652Y6715D01*
X7651Y6717D01*
X7651Y6719D01*
X7650Y6721D01*
Y6722D01*
X7651Y6723D01*
Y6724D01*
X7651Y6725D01*
X7651Y6727D01*
X7652Y6730D01*
X7653Y6733D01*
X7654Y6735D01*
X7656Y6737D01*
X7657Y6738D01*
X7657Y6738D01*
X7659Y6739D01*
X7661Y6740D01*
X7663Y6741D01*
X7665Y6742D01*
X7666Y6742D01*
X7668Y6742D01*
X7670Y6743D01*
X7672Y6743D01*
X7674D01*
X7722D01*
Y6731D01*
D02*
G37*
G36*
Y6619D02*
X7652D01*
Y6630D01*
X7722D01*
Y6619D01*
D02*
G37*
G36*
X7639D02*
X7626D01*
Y6630D01*
X7639D01*
Y6619D01*
D02*
G37*
G36*
X7722Y6588D02*
X7626D01*
Y6600D01*
X7722D01*
Y6588D01*
D02*
G37*
G36*
X7692Y6574D02*
X7693Y6574D01*
X7694Y6574D01*
X7695Y6573D01*
X7697Y6573D01*
X7698Y6572D01*
X7700Y6571D01*
X7704Y6569D01*
X7708Y6567D01*
X7710Y6565D01*
X7712Y6564D01*
X7713Y6562D01*
X7715Y6560D01*
X7715Y6560D01*
X7715Y6560D01*
X7716Y6559D01*
X7716Y6558D01*
X7717Y6557D01*
X7718Y6556D01*
X7718Y6555D01*
X7719Y6553D01*
X7720Y6551D01*
X7721Y6549D01*
X7721Y6547D01*
X7722Y6545D01*
X7722Y6543D01*
X7723Y6540D01*
X7723Y6538D01*
X7723Y6535D01*
Y6533D01*
X7723Y6532D01*
Y6531D01*
X7723Y6529D01*
X7723Y6528D01*
X7722Y6526D01*
X7722Y6522D01*
X7720Y6518D01*
X7719Y6513D01*
X7718Y6511D01*
X7717Y6510D01*
X7717Y6509D01*
X7717Y6509D01*
X7716Y6509D01*
X7716Y6508D01*
X7715Y6507D01*
X7714Y6506D01*
X7712Y6504D01*
X7710Y6502D01*
X7706Y6499D01*
X7703Y6497D01*
X7699Y6495D01*
X7698D01*
X7698Y6495D01*
X7697Y6494D01*
X7696Y6494D01*
X7695Y6494D01*
X7694Y6493D01*
X7693Y6493D01*
X7691Y6492D01*
X7689Y6492D01*
X7687Y6491D01*
X7683Y6491D01*
X7678Y6490D01*
X7673Y6490D01*
X7673D01*
X7672D01*
X7671D01*
X7670Y6490D01*
X7669D01*
X7667Y6490D01*
X7666Y6490D01*
X7664Y6490D01*
X7660Y6491D01*
X7655Y6492D01*
X7651Y6494D01*
X7647Y6495D01*
X7647D01*
X7646Y6496D01*
X7646Y6496D01*
X7645Y6496D01*
X7644Y6497D01*
X7643Y6498D01*
X7640Y6500D01*
X7638Y6502D01*
X7635Y6505D01*
X7632Y6508D01*
X7630Y6512D01*
Y6512D01*
X7629Y6512D01*
X7629Y6513D01*
X7629Y6514D01*
X7628Y6515D01*
X7628Y6516D01*
X7627Y6517D01*
X7627Y6519D01*
X7626Y6520D01*
X7626Y6522D01*
X7625Y6526D01*
X7624Y6530D01*
X7624Y6535D01*
Y6536D01*
X7624Y6537D01*
X7624Y6539D01*
X7624Y6540D01*
X7624Y6542D01*
X7625Y6544D01*
X7626Y6547D01*
X7627Y6551D01*
X7628Y6553D01*
X7629Y6555D01*
X7630Y6557D01*
X7631Y6559D01*
X7631Y6559D01*
X7632Y6560D01*
X7632Y6560D01*
X7633Y6561D01*
X7633Y6562D01*
X7634Y6563D01*
X7635Y6564D01*
X7637Y6565D01*
X7638Y6566D01*
X7640Y6567D01*
X7641Y6568D01*
X7643Y6569D01*
X7645Y6570D01*
X7647Y6571D01*
X7649Y6572D01*
X7652Y6573D01*
X7655Y6561D01*
X7655D01*
X7654Y6560D01*
X7654Y6560D01*
X7653Y6560D01*
X7652Y6560D01*
X7651Y6559D01*
X7649Y6558D01*
X7647Y6557D01*
X7644Y6555D01*
X7642Y6553D01*
X7640Y6551D01*
X7639Y6550D01*
X7639Y6550D01*
X7638Y6548D01*
X7637Y6546D01*
X7636Y6544D01*
X7635Y6541D01*
X7635Y6538D01*
X7635Y6535D01*
Y6534D01*
X7635Y6533D01*
Y6532D01*
X7635Y6531D01*
X7635Y6528D01*
X7636Y6525D01*
X7637Y6522D01*
X7638Y6519D01*
X7640Y6516D01*
Y6516D01*
X7640Y6516D01*
X7641Y6515D01*
X7642Y6514D01*
X7644Y6512D01*
X7646Y6510D01*
X7648Y6509D01*
X7651Y6507D01*
X7654Y6506D01*
X7655D01*
X7655Y6506D01*
X7655Y6506D01*
X7656Y6505D01*
X7657Y6505D01*
X7658Y6505D01*
X7660Y6504D01*
X7663Y6504D01*
X7666Y6503D01*
X7669Y6503D01*
X7673Y6503D01*
X7673D01*
X7673D01*
X7674D01*
X7675D01*
X7676Y6503D01*
X7677D01*
X7678Y6503D01*
X7680Y6503D01*
X7683Y6504D01*
X7687Y6504D01*
X7691Y6505D01*
X7694Y6506D01*
X7694D01*
X7695Y6507D01*
X7695Y6507D01*
X7696Y6507D01*
X7697Y6508D01*
X7699Y6509D01*
X7702Y6511D01*
X7704Y6513D01*
X7706Y6515D01*
X7708Y6517D01*
Y6518D01*
X7708Y6518D01*
X7708Y6518D01*
X7709Y6519D01*
X7709Y6520D01*
X7710Y6522D01*
X7711Y6525D01*
X7712Y6528D01*
X7712Y6531D01*
X7712Y6534D01*
Y6535D01*
X7712Y6536D01*
Y6537D01*
X7712Y6538D01*
X7712Y6540D01*
X7711Y6543D01*
X7710Y6546D01*
X7708Y6549D01*
X7707Y6550D01*
X7706Y6552D01*
X7706Y6552D01*
X7706Y6552D01*
X7705Y6553D01*
X7705Y6553D01*
X7704Y6554D01*
X7704Y6554D01*
X7702Y6556D01*
X7699Y6558D01*
X7696Y6559D01*
X7692Y6561D01*
X7688Y6562D01*
X7691Y6575D01*
X7691D01*
X7692Y6574D01*
D02*
G37*
%LPC*%
G36*
X7689Y7540D02*
X7686D01*
X7686D01*
X7686D01*
X7685D01*
X7684Y7540D01*
X7683D01*
X7682Y7540D01*
X7679Y7539D01*
X7676Y7539D01*
X7673Y7537D01*
X7669Y7536D01*
X7668Y7535D01*
X7667Y7534D01*
X7667D01*
X7666Y7534D01*
X7666Y7533D01*
X7665Y7532D01*
X7663Y7530D01*
X7662Y7528D01*
X7661Y7525D01*
X7660Y7523D01*
X7660Y7521D01*
Y7519D01*
X7660Y7518D01*
X7660Y7516D01*
X7661Y7514D01*
X7662Y7512D01*
X7663Y7509D01*
X7665Y7507D01*
X7666Y7506D01*
X7667Y7505D01*
X7667D01*
X7667Y7504D01*
X7667Y7504D01*
X7668Y7504D01*
X7669Y7503D01*
X7669Y7503D01*
X7671Y7502D01*
X7672Y7502D01*
X7673Y7501D01*
X7674Y7501D01*
X7676Y7500D01*
X7678Y7500D01*
X7680Y7500D01*
X7682Y7499D01*
X7684Y7499D01*
X7687D01*
X7687D01*
X7687D01*
X7688D01*
X7689Y7499D01*
X7690D01*
X7691Y7499D01*
X7694Y7500D01*
X7698Y7500D01*
X7701Y7501D01*
X7704Y7503D01*
X7706Y7504D01*
X7707Y7505D01*
Y7505D01*
X7707Y7505D01*
X7708Y7506D01*
X7709Y7507D01*
X7710Y7509D01*
X7711Y7511D01*
X7712Y7513D01*
X7713Y7516D01*
X7713Y7518D01*
X7713Y7519D01*
Y7520D01*
X7713Y7521D01*
X7713Y7523D01*
X7713Y7525D01*
X7712Y7527D01*
X7711Y7529D01*
X7709Y7532D01*
X7708Y7533D01*
X7707Y7534D01*
X7707D01*
X7707Y7534D01*
X7706Y7535D01*
X7706Y7535D01*
X7705Y7536D01*
X7704Y7536D01*
X7703Y7537D01*
X7702Y7537D01*
X7700Y7538D01*
X7699Y7538D01*
X7697Y7539D01*
X7695Y7539D01*
X7693Y7539D01*
X7691Y7540D01*
X7689Y7540D01*
D02*
G37*
G36*
X7680Y7323D02*
X7680D01*
X7680D01*
X7679Y7323D01*
X7679D01*
X7677Y7322D01*
X7675Y7322D01*
X7673Y7321D01*
X7671Y7320D01*
X7669Y7319D01*
X7667Y7318D01*
X7667D01*
X7667Y7318D01*
X7666Y7317D01*
X7665Y7316D01*
X7664Y7314D01*
X7662Y7312D01*
X7661Y7310D01*
X7660Y7307D01*
X7660Y7305D01*
X7660Y7304D01*
Y7303D01*
X7660Y7302D01*
X7660Y7301D01*
X7661Y7299D01*
X7661Y7297D01*
X7662Y7294D01*
X7664Y7292D01*
X7666Y7290D01*
X7666Y7290D01*
X7667Y7289D01*
X7668Y7288D01*
X7669Y7287D01*
X7671Y7286D01*
X7674Y7285D01*
X7677Y7284D01*
X7680Y7284D01*
Y7323D01*
D02*
G37*
G36*
Y6972D02*
X7680D01*
X7680D01*
X7679Y6972D01*
X7679D01*
X7677Y6972D01*
X7675Y6971D01*
X7673Y6971D01*
X7671Y6970D01*
X7669Y6969D01*
X7667Y6968D01*
X7667D01*
X7667Y6967D01*
X7666Y6967D01*
X7665Y6965D01*
X7664Y6964D01*
X7662Y6962D01*
X7661Y6959D01*
X7660Y6956D01*
X7660Y6955D01*
X7660Y6953D01*
Y6952D01*
X7660Y6952D01*
X7660Y6950D01*
X7661Y6948D01*
X7661Y6946D01*
X7662Y6944D01*
X7664Y6941D01*
X7666Y6939D01*
X7666Y6939D01*
X7667Y6938D01*
X7668Y6938D01*
X7669Y6937D01*
X7671Y6935D01*
X7674Y6934D01*
X7677Y6934D01*
X7680Y6933D01*
Y6972D01*
D02*
G37*
G36*
X7691Y6805D02*
X7687D01*
Y6805D01*
X7687Y6804D01*
X7687Y6804D01*
X7687Y6803D01*
X7687Y6803D01*
X7688Y6802D01*
X7688Y6801D01*
X7688Y6800D01*
X7689Y6799D01*
X7689Y6797D01*
X7689Y6795D01*
X7690Y6794D01*
X7690Y6792D01*
X7690Y6790D01*
X7691Y6788D01*
X7691Y6785D01*
Y6785D01*
X7691Y6784D01*
X7692Y6783D01*
X7692Y6781D01*
X7693Y6778D01*
X7693Y6776D01*
X7693Y6775D01*
Y6775D01*
X7694Y6775D01*
X7694Y6774D01*
X7694Y6773D01*
X7696Y6772D01*
X7697Y6770D01*
X7697D01*
X7698Y6770D01*
X7698Y6770D01*
X7699Y6770D01*
X7701Y6769D01*
X7702Y6769D01*
X7703Y6769D01*
X7703D01*
X7704D01*
X7705Y6769D01*
X7706Y6769D01*
X7707Y6770D01*
X7708Y6770D01*
X7709Y6771D01*
X7711Y6772D01*
X7711Y6772D01*
X7711Y6773D01*
X7712Y6774D01*
X7712Y6775D01*
X7713Y6776D01*
X7713Y6778D01*
X7714Y6780D01*
X7714Y6783D01*
Y6784D01*
X7714Y6785D01*
X7713Y6787D01*
X7713Y6789D01*
X7713Y6791D01*
X7712Y6793D01*
X7711Y6795D01*
X7711Y6795D01*
X7710Y6796D01*
X7710Y6797D01*
X7709Y6798D01*
X7708Y6799D01*
X7706Y6801D01*
X7705Y6802D01*
X7703Y6803D01*
X7703Y6803D01*
X7702Y6803D01*
X7701Y6803D01*
X7700Y6804D01*
X7698Y6804D01*
X7696Y6804D01*
X7694Y6805D01*
X7691Y6805D01*
D02*
G37*
%LPD*%
D11*
X8611Y9500D02*
D03*
X8585Y6604D02*
D03*
D12*
X7154Y9639D02*
X7354D01*
X7252Y9542D02*
Y9742D01*
D17*
X8268Y9601D02*
X8509D01*
X8268Y9207D02*
X8585Y8890D01*
X8268Y9207D02*
X8890D01*
X8585Y6604D02*
Y8890D01*
X8357D02*
X8484Y8763D01*
Y7391D02*
Y8763D01*
X8252Y7160D02*
X8484Y7391D01*
X7909Y7160D02*
X8252D01*
X8357Y7823D02*
Y8192D01*
X7379Y9512D02*
X7963D01*
X7252Y9639D02*
X7379Y9512D01*
X7963D02*
X8268Y9207D01*
X7931D02*
X8268D01*
X7379Y9169D02*
X8357Y8192D01*
X7379Y9169D02*
Y9300D01*
X8509Y9601D02*
X8611Y9500D01*
D18*
X7379Y9350D02*
D03*
D19*
X7633D02*
D03*
X7252Y9639D02*
D03*
D20*
X8268D02*
D03*
X8014D02*
D03*
X7760D02*
D03*
X7506D02*
D03*
D21*
X8357Y8890D02*
D03*
X7909Y7160D02*
D03*
X8357Y7823D02*
D03*
X7909Y9204D02*
D03*
X8890Y9207D02*
D03*
M02*
